<?xml version="1.0" encoding="utf-8"?>
<!-- Generator: Adobe Illustrator 15.0.0, SVG Export Plug-In . SVG Version: 6.00 Build 0)  -->
<!DOCTYPE svg PUBLIC "-//W3C//DTD SVG 1.1//EN" "http://www.w3.org/Graphics/SVG/1.1/DTD/svg11.dtd">
<svg version="1.1" id="Layer_1" xmlns="http://www.w3.org/2000/svg" xmlns:xlink="http://www.w3.org/1999/xlink" x="0px" y="0px"
	 width="59.528px" height="87.874px" viewBox="0 0 59.528 87.874" enable-background="new 0 0 59.528 87.874" xml:space="preserve">
<g>
	<g>
		<radialGradient id="SVGID_1_" cx="36.2251" cy="21.873" r="44.186" gradientUnits="userSpaceOnUse">
			<stop  offset="0" style="stop-color:#434898"/>
			<stop  offset="0.5579" style="stop-color:#484898"/>
			<stop  offset="1" style="stop-color:#514696"/>
		</radialGradient>
		<path fill="url(#SVGID_1_)" d="M58.378,30.27c0-15.787-12.797-28.584-28.584-28.584c-15.787,0-28.584,12.797-28.584,28.584
			c0,5.15,1.368,9.978,3.751,14.153c8.36,14.658,20.252,35.492,23.797,41.7c0.212,0.373,0.606,0.602,1.034,0.602
			c0.428,0,0.824-0.229,1.037-0.6c3.544-6.208,15.436-27.043,23.806-41.702C57.01,40.248,58.378,35.419,58.378,30.27z"/>
		<radialGradient id="SVGID_2_" cx="36.2251" cy="21.873" r="44.186" gradientUnits="userSpaceOnUse">
			<stop  offset="0" style="stop-color:#434898"/>
			<stop  offset="0.5579" style="stop-color:#484898"/>
			<stop  offset="1" style="stop-color:#514696"/>
		</radialGradient>
		<path fill="url(#SVGID_2_)" d="M58.378,30.27c0-15.787-12.797-28.584-28.584-28.584c-15.787,0-28.584,12.797-28.584,28.584
			c0,5.15,1.368,9.978,3.751,14.153c8.36,14.658,20.252,35.492,23.797,41.7c0.212,0.373,0.606,0.602,1.034,0.602
			c0.428,0,0.824-0.229,1.037-0.6c3.544-6.208,15.436-27.043,23.806-41.702C57.01,40.248,58.378,35.419,58.378,30.27z"/>
		<defs>
			<filter id="Adobe_OpacityMaskFilter" filterUnits="userSpaceOnUse" x="1.463" y="34.091" width="56.66" height="52.634">
				<feFlood  style="flood-color:white;flood-opacity:1" result="back"/>
				<feBlend  in="SourceGraphic" in2="back" mode="normal"/>
			</filter>
		</defs>
		<mask maskUnits="userSpaceOnUse" x="1.463" y="34.091" width="56.66" height="52.634" id="SVGID_3_">
			<g filter="url(#Adobe_OpacityMaskFilter)">
				<defs>
					<filter id="Adobe_OpacityMaskFilter_1_" filterUnits="userSpaceOnUse" x="1.463" y="34.091" width="56.66" height="52.634">
						<feFlood  style="flood-color:white;flood-opacity:1" result="back"/>
						<feBlend  in="SourceGraphic" in2="back" mode="normal"/>
					</filter>
				</defs>
				<mask maskUnits="userSpaceOnUse" x="1.463" y="34.091" width="56.66" height="52.634" id="SVGID_3_">
					<g filter="url(#Adobe_OpacityMaskFilter_1_)">
					</g>
				</mask>
				<linearGradient id="SVGID_4_" gradientUnits="userSpaceOnUse" x1="7.9526" y1="74.2988" x2="37.9061" y2="22.4179">
					<stop  offset="0" style="stop-color:#FFFFFF"/>
					<stop  offset="0.1102" style="stop-color:#CBCBCB"/>
					<stop  offset="0.239" style="stop-color:#969696"/>
					<stop  offset="0.3696" style="stop-color:#686868"/>
					<stop  offset="0.4992" style="stop-color:#434343"/>
					<stop  offset="0.6276" style="stop-color:#252525"/>
					<stop  offset="0.7546" style="stop-color:#111111"/>
					<stop  offset="0.8795" style="stop-color:#040404"/>
					<stop  offset="1" style="stop-color:#000000"/>
				</linearGradient>
				<path mask="url(#SVGID_3_)" fill="url(#SVGID_4_)" d="M58.124,34.091c-0.673,2.815-1.787,5.475-3.275,7.911
					C45.902,56.66,29.92,84.008,29.794,84.149C29.667,84.008,13.686,56.66,4.74,42.002c-1.489-2.436-2.603-5.096-3.276-7.911
					c0.498,3.717,1.715,7.207,3.496,10.332c8.178,14.337,23.723,41.569,23.799,41.7c0.053,0.094,0.118,0.178,0.19,0.253
					c0.221,0.22,0.524,0.35,0.844,0.35h0.001h0.001c0.32,0,0.623-0.13,0.843-0.35c0.074-0.075,0.137-0.159,0.191-0.253
					c0.075-0.131,15.62-27.362,23.798-41.7C56.41,41.298,57.625,37.808,58.124,34.091z"/>
			</g>
		</mask>
		<linearGradient id="SVGID_5_" gradientUnits="userSpaceOnUse" x1="7.9526" y1="74.2988" x2="37.9061" y2="22.4179">
			<stop  offset="0" style="stop-color:#474596"/>
			<stop  offset="0.3921" style="stop-color:#4D4696"/>
			<stop  offset="1" style="stop-color:#514696"/>
		</linearGradient>
		<path fill="url(#SVGID_5_)" d="M58.124,34.091c-0.673,2.815-1.787,5.475-3.275,7.911C45.902,56.66,29.92,84.008,29.794,84.149
			C29.667,84.008,13.686,56.66,4.74,42.002c-1.489-2.436-2.603-5.096-3.276-7.911c0.498,3.717,1.715,7.207,3.496,10.332
			c8.178,14.337,23.723,41.569,23.799,41.7c0.053,0.094,0.118,0.178,0.19,0.253c0.221,0.22,0.524,0.35,0.844,0.35h0.001h0.001
			c0.32,0,0.623-0.13,0.843-0.35c0.074-0.075,0.137-0.159,0.191-0.253c0.075-0.131,15.62-27.362,23.798-41.7
			C56.41,41.298,57.625,37.808,58.124,34.091z"/>
		
			<linearGradient id="SVGID_6_" gradientUnits="userSpaceOnUse" x1="-9.5615" y1="-90.6899" x2="-9.5615" y2="-43.3638" gradientTransform="matrix(-0.7071 -0.7071 0.7071 -0.7071 70.4268 -23.8851)">
			<stop  offset="0" style="stop-color:#574A99"/>
			<stop  offset="0.7672" style="stop-color:#534897"/>
			<stop  offset="1" style="stop-color:#514696"/>
		</linearGradient>
		<path fill="url(#SVGID_6_)" d="M46.526,13.539c9.224,9.227,9.224,24.237,0,33.463c-9.228,9.228-24.238,9.228-33.465,0
			c-9.226-9.227-9.226-24.237,0-33.462C22.288,4.314,37.3,4.314,46.526,13.539z"/>
		<path fill="#514696" d="M45.476,14.587c8.646,8.648,8.646,22.719,0,31.367c-8.65,8.646-22.718,8.646-31.366,0
			c-8.647-8.648-8.647-22.718,0-31.367C22.758,5.941,36.828,5.941,45.476,14.587z"/>
		<defs>
			<filter id="Adobe_OpacityMaskFilter_2_" filterUnits="userSpaceOnUse" x="10.149" y="2.619" width="47.297" height="47.296">
				<feFlood  style="flood-color:white;flood-opacity:1" result="back"/>
				<feBlend  in="SourceGraphic" in2="back" mode="normal"/>
			</filter>
		</defs>
		<mask maskUnits="userSpaceOnUse" x="10.149" y="2.619" width="47.297" height="47.296" id="SVGID_7_">
			<g filter="url(#Adobe_OpacityMaskFilter_2_)">
				<defs>
					<filter id="Adobe_OpacityMaskFilter_3_" filterUnits="userSpaceOnUse" x="10.149" y="2.619" width="47.297" height="47.296">
						<feFlood  style="flood-color:white;flood-opacity:1" result="back"/>
						<feBlend  in="SourceGraphic" in2="back" mode="normal"/>
					</filter>
				</defs>
				<mask maskUnits="userSpaceOnUse" x="10.149" y="2.619" width="47.297" height="47.296" id="SVGID_7_">
					<g filter="url(#Adobe_OpacityMaskFilter_3_)">
					</g>
				</mask>
				<radialGradient id="SVGID_8_" cx="55.0532" cy="5.7578" r="43.7222" gradientUnits="userSpaceOnUse">
					<stop  offset="0" style="stop-color:#BFBFBF"/>
					<stop  offset="1" style="stop-color:#000000"/>
				</radialGradient>
				<path mask="url(#SVGID_7_)" fill="url(#SVGID_8_)" d="M57.446,29.896c0-15.065-12.214-27.277-27.281-27.277
					c-7.912,0-15.034,3.371-20.016,8.752c4.864-4.503,11.371-7.262,18.526-7.262c15.066,0,27.279,12.213,27.279,27.279
					c0,7.155-2.756,13.662-7.262,18.526C54.076,44.932,57.446,37.812,57.446,29.896z"/>
			</g>
		</mask>
		<radialGradient id="SVGID_9_" cx="55.0532" cy="5.7578" r="43.7222" gradientUnits="userSpaceOnUse">
			<stop  offset="0" style="stop-color:#BA85BA"/>
			<stop  offset="1" style="stop-color:#BA85BA"/>
		</radialGradient>
		<path fill="url(#SVGID_9_)" d="M57.446,29.896c0-15.065-12.214-27.277-27.281-27.277c-7.912,0-15.034,3.371-20.016,8.752
			c4.864-4.503,11.371-7.262,18.526-7.262c15.066,0,27.279,12.213,27.279,27.279c0,7.155-2.756,13.662-7.262,18.526
			C54.076,44.932,57.446,37.812,57.446,29.896z"/>
	</g>
	<g>
		<radialGradient id="SVGID_10_" cx="33.522" cy="24.585" r="28.1526" gradientUnits="userSpaceOnUse">
			<stop  offset="0" style="stop-color:#FFFFFF"/>
			<stop  offset="0.3287" style="stop-color:#FDFDFD"/>
			<stop  offset="0.5264" style="stop-color:#F6F6F6"/>
			<stop  offset="0.6894" style="stop-color:#E9E9E9"/>
			<stop  offset="0.8327" style="stop-color:#D8D8D8"/>
			<stop  offset="0.885" style="stop-color:#D0D0D0"/>
		</radialGradient>
		<path fill="url(#SVGID_10_)" d="M29.792,51.82c-11.882,0-21.548-9.666-21.548-21.551c0-11.88,9.666-21.549,21.548-21.549
			c11.884,0,21.551,9.668,21.551,21.549C51.343,42.155,41.676,51.82,29.792,51.82z"/>
		<defs>
			<filter id="Adobe_OpacityMaskFilter_4_" filterUnits="userSpaceOnUse" x="14.197" y="8.721" width="37.146" height="37.145">
				<feFlood  style="flood-color:white;flood-opacity:1" result="back"/>
				<feBlend  in="SourceGraphic" in2="back" mode="normal"/>
			</filter>
		</defs>
		<mask maskUnits="userSpaceOnUse" x="14.197" y="8.721" width="37.146" height="37.145" id="SVGID_11_">
			<g filter="url(#Adobe_OpacityMaskFilter_4_)">
				<defs>
					<filter id="Adobe_OpacityMaskFilter_5_" filterUnits="userSpaceOnUse" x="14.197" y="8.721" width="37.146" height="37.145">
						<feFlood  style="flood-color:white;flood-opacity:1" result="back"/>
						<feBlend  in="SourceGraphic" in2="back" mode="normal"/>
					</filter>
				</defs>
				<mask maskUnits="userSpaceOnUse" x="14.197" y="8.721" width="37.146" height="37.145" id="SVGID_11_">
					<g filter="url(#Adobe_OpacityMaskFilter_5_)">
					</g>
				</mask>
				<linearGradient id="SVGID_12_" gradientUnits="userSpaceOnUse" x1="29.4194" y1="30.644" x2="45.0239" y2="15.0396">
					<stop  offset="0" style="stop-color:#000000"/>
					<stop  offset="1" style="stop-color:#FFFFFF"/>
				</linearGradient>
				<path mask="url(#SVGID_11_)" fill="url(#SVGID_12_)" d="M29.792,8.721c-6.129,0-11.668,2.578-15.595,6.701
					c3.868-3.685,9.097-5.955,14.849-5.955c11.884,0,21.551,9.667,21.551,21.548c0,5.753-2.27,10.981-5.955,14.85
					c4.124-3.928,6.701-9.463,6.701-15.596C51.343,18.389,41.676,8.721,29.792,8.721z"/>
			</g>
		</mask>
		<linearGradient id="SVGID_13_" gradientUnits="userSpaceOnUse" x1="29.4194" y1="30.644" x2="45.0239" y2="15.0396">
			<stop  offset="0" style="stop-color:#FFFFFF"/>
			<stop  offset="1" style="stop-color:#D0D0D0"/>
		</linearGradient>
		<path fill="url(#SVGID_13_)" d="M29.792,8.721c-6.129,0-11.668,2.578-15.595,6.701c3.868-3.685,9.097-5.955,14.849-5.955
			c11.884,0,21.551,9.667,21.551,21.548c0,5.753-2.27,10.981-5.955,14.85c4.124-3.928,6.701-9.463,6.701-15.596
			C51.343,18.389,41.676,8.721,29.792,8.721z"/>
	</g>
	<path fill="#6D6D6D" d="M40.982,32.217v-1.022c0-0.447-0.263-0.854-0.673-1.03l-1.901-0.826c0-0.02,0.002-0.041,0.002-0.059
		c0-0.704-0.377-1.276-0.845-1.276c-0.316,0-0.589,0.26-0.736,0.647l-0.92-0.4c-0.01-0.841-0.463-1.516-1.02-1.516
		c-0.357,0-0.671,0.279-0.854,0.701l-2.007-0.875c0.088-1.662,0.134-3.155,0.134-4.258c0-1.592-1.508-3.219-2.369-3.219
		c-0.861,0-2.369,1.627-2.369,3.219c0,1.103,0.048,2.596,0.134,4.258l-2.007,0.875c-0.182-0.421-0.496-0.701-0.854-0.701
		c-0.558,0-1.01,0.675-1.02,1.516l-0.923,0.4c-0.144-0.387-0.418-0.647-0.734-0.647c-0.467,0-0.846,0.573-0.846,1.276
		c0,0.018,0.002,0.039,0.004,0.059l-1.901,0.826c-0.41,0.177-0.676,0.583-0.676,1.03v1.022l9.268-1.062
		c0.211,2.577,0.492,5.132,0.816,7.053l-3.125,2.37v0.88l3.602-0.843c0.02-0.004,0.043-0.006,0.063-0.011
		c0.182,0.543,0.371,0.854,0.566,0.854c0.197,0,0.386-0.311,0.567-0.854c0.021,0.004,0.042,0.006,0.062,0.011l3.604,0.843v-0.88
		l-3.125-2.37c0.323-1.921,0.603-4.477,0.818-7.053L40.982,32.217z M31.032,22.667c-0.317-0.709-0.963-0.862-1.233-0.892
		c-0.28,0.03-0.928,0.184-1.244,0.893c-0.02,0.046-0.064,0.068-0.106,0.056c-0.042-0.012-0.071-0.056-0.072-0.107
		c0-0.107,0-0.214,0-0.316c0-0.979,0.693-2.021,1.422-2.094c0.706,0.073,1.413,1.115,1.413,2.094c0,0.102,0,0.209-0.002,0.316
		c0,0.051-0.031,0.096-0.073,0.107C31.094,22.736,31.051,22.714,31.032,22.667z"/>
</g>
</svg>
