<svg data-v-423bf9ae="" xmlns="http://www.w3.org/2000/svg" viewBox="0 0 277.90219934741003 60" class="font"><!----><!----><!----><g data-v-423bf9ae="" id="e3231323-306c-4be4-a315-3798370cee8f" fill="white" transform="matrix(4.731861084854148,0,0,4.731861084854148,-4.305991903105763,-3.312303477850108)"><path d="M9.45 10.50L10.19 10.50L10.19 0.70L9.27 0.70L5.56 6.41L1.81 0.70C1.44 0.70 1.27 0.70 0.91 0.70L0.91 10.50L1.67 10.50L1.67 1.79L5.45 7.53L5.70 7.53L9.45 1.79ZM17.39 3.58L15.65 7.66L14.85 9.67L14.04 7.67L12.43 3.58L11.69 3.58L14.46 10.42L13.19 13.38L13.92 13.38L18.13 3.58ZM26.47 9.66L23.45 0.70L22.65 0.70L26.08 10.53L26.89 10.53L28.46 5.91L29.69 2.06L30.93 5.94L32.48 10.53L33.29 10.53L36.75 0.70L35.94 0.70L32.90 9.66L29.90 0.70L29.48 0.70ZM39.82 10.60C41.76 10.60 43.33 9.25 43.33 7.06C43.33 4.86 41.76 3.46 39.82 3.46C37.87 3.46 36.30 4.86 36.30 7.06C36.30 9.25 37.87 10.60 39.82 10.60ZM39.82 9.93C38.25 9.93 36.97 8.85 36.97 7.06C36.97 5.26 38.25 4.10 39.82 4.10C41.38 4.10 42.66 5.26 42.66 7.06C42.66 8.85 41.38 9.93 39.82 9.93ZM44.91 3.58L44.91 10.50L45.60 10.50L45.60 6.47C45.60 5.21 46.59 4.17 47.88 4.16C48.29 4.16 48.69 4.26 49.06 4.48L49.36 3.92C48.90 3.64 48.40 3.50 47.88 3.51C47.00 3.51 46.02 3.88 45.58 4.82L45.56 3.58ZM50.40 0.70L50.40 10.50L51.09 10.50L51.09 0.70ZM56.13 4.13C57.72 4.13 58.95 5.31 58.95 7.03C58.95 8.75 57.75 9.94 56.13 9.94C54.57 9.94 53.30 8.96 53.30 7.04C53.30 5.10 54.57 4.13 56.13 4.13ZM58.97 0.70L58.97 5.10C58.41 3.98 57.29 3.47 56.10 3.47C54.17 3.47 52.63 4.76 52.63 7.04C52.63 9.34 54.15 10.61 56.08 10.61C57.26 10.61 58.39 10.02 58.97 8.97L58.97 10.50L59.64 10.50L59.64 0.70Z"></path></g><!----><!----></svg>