<svg data-v-423bf9ae="" xmlns="http://www.w3.org/2000/svg" viewBox="0 0 424 90" class="iconLeft"><!----><!----><!----><g data-v-423bf9ae="" id="84bc1134-3ea1-479f-892c-876631fbc829" fill="#000000" transform="matrix(4.731861084854148,0,0,4.731861084854148,141.53221915646455,11.687696522149892)"><path d="M9.45 10.50L10.19 10.50L10.19 0.70L9.27 0.70L5.56 6.41L1.81 0.70C1.44 0.70 1.27 0.70 0.91 0.70L0.91 10.50L1.67 10.50L1.67 1.79L5.45 7.53L5.70 7.53L9.45 1.79ZM17.39 3.58L15.65 7.66L14.85 9.67L14.04 7.67L12.43 3.58L11.69 3.58L14.46 10.42L13.19 13.38L13.92 13.38L18.13 3.58ZM26.47 9.66L23.45 0.70L22.65 0.70L26.08 10.53L26.89 10.53L28.46 5.91L29.69 2.06L30.93 5.94L32.48 10.53L33.29 10.53L36.75 0.70L35.94 0.70L32.90 9.66L29.90 0.70L29.48 0.70ZM39.82 10.60C41.76 10.60 43.33 9.25 43.33 7.06C43.33 4.86 41.76 3.46 39.82 3.46C37.87 3.46 36.30 4.86 36.30 7.06C36.30 9.25 37.87 10.60 39.82 10.60ZM39.82 9.93C38.25 9.93 36.97 8.85 36.97 7.06C36.97 5.26 38.25 4.10 39.82 4.10C41.38 4.10 42.66 5.26 42.66 7.06C42.66 8.85 41.38 9.93 39.82 9.93ZM44.91 3.58L44.91 10.50L45.60 10.50L45.60 6.47C45.60 5.21 46.59 4.17 47.88 4.16C48.29 4.16 48.69 4.26 49.06 4.48L49.36 3.92C48.90 3.64 48.40 3.50 47.88 3.51C47.00 3.51 46.02 3.88 45.58 4.82L45.56 3.58ZM50.40 0.70L50.40 10.50L51.09 10.50L51.09 0.70ZM56.13 4.13C57.72 4.13 58.95 5.31 58.95 7.03C58.95 8.75 57.75 9.94 56.13 9.94C54.57 9.94 53.30 8.96 53.30 7.04C53.30 5.10 54.57 4.13 56.13 4.13ZM58.97 0.70L58.97 5.10C58.41 3.98 57.29 3.47 56.10 3.47C54.17 3.47 52.63 4.76 52.63 7.04C52.63 9.34 54.15 10.61 56.08 10.61C57.26 10.61 58.39 10.02 58.97 8.97L58.97 10.50L59.64 10.50L59.64 0.70Z"></path></g><defs data-v-423bf9ae=""><linearGradient data-v-423bf9ae="" gradientTransform="rotate(25)" id="13750e80-eeee-4013-9a13-006915071e51" x1="0%" y1="0%" x2="100%" y2="0%"><stop data-v-423bf9ae="" offset="0%" style="stop-color: rgb(0, 102, 120); stop-opacity: 1;"></stop><stop data-v-423bf9ae="" offset="100%" style="stop-color: rgb(79, 168, 255); stop-opacity: 1;"></stop></linearGradient></defs><g data-v-423bf9ae="" id="a66d9c45-ede6-4b7a-aeef-7268905af5b7" transform="matrix(1.5254237288135593,0,0,1.5254237288135593,-15.460848743632681,-33.82203389830508)" stroke="none" fill="url(#13750e80-eeee-4013-9a13-006915071e51)"><switch><g><path d="M50 81.5c-16.3 0-29.5-13.2-29.5-29.5S33.7 22.5 50 22.5c6.8 0 13.5 2.4 18.8 6.7 3.3 2.7 6 6.2 7.8 10 .4.7 0 1.6-.7 2-.7.4-1.6 0-2-.7-1.7-3.4-4.1-6.5-7-9-4.7-3.9-10.7-6.1-16.9-6.1-14.6 0-26.5 11.9-26.5 26.5S35.4 78.5 50 78.5c10.3 0 19.7-6 24.1-15.4.3-.8 1.2-1.1 2-.7.8.3 1.1 1.2.7 2C72 74.8 61.5 81.5 50 81.5z"></path><path d="M27.7 71.1c-8.8 0-15-2.4-16.7-6.9-1.8-4.9 1.8-11.2 10.2-17.5.7-.5 1.6-.4 2.1.3s.4 1.6-.3 2.1c-7 5.3-10.4 10.6-9.2 14.1 2 5.4 15.8 7.3 35.6 1.2.8-.2 1.6.2 1.9 1 .2.8-.2 1.6-1 1.9-8.4 2.6-16.2 3.8-22.6 3.8zM87.6 37.8c-.6 0-1.2-.4-1.4-1-1.3-3.5-7.3-5.3-16.1-4.9h-2.3c-.8 0-1.5-.7-1.5-1.5s.7-1.5 1.5-1.5H70c10.4-.5 17.2 1.9 19 6.9.3.8-.1 1.6-.9 1.9-.2.1-.3.1-.5.1z"></path><path d="M50 67.1c-.2 0-.4 0-.6-.1l-7.3-3.4c-.8-.3-1.1-1.2-.7-2 .4-.8 1.2-1.1 2-.7l7.3 3.4c.8.3 1.1 1.2.7 2-.3.5-.8.8-1.4.8z"></path><path d="M46.6 74.4c-.2 0-.4 0-.6-.1-.8-.3-1.1-1.2-.7-2l3.4-7.3c.4-.8 1.2-1.1 2-.7.8.3 1.1 1.2.7 2L48 73.5c-.3.6-.8.9-1.4.9z"></path><g><path d="M58.6 64c-.2 0-.4 0-.6-.1l-12-5.5c-.6-.3-1-1-.8-1.7s.7-1.2 1.4-1.2l11.9-.4 4.3-2.6-6.7-7.2c-.3-.3-.4-.7-.4-1.1 0-.4.2-.8.5-1.1.2-.1 1.7-1.4 4.7-1.4 3.7 0 8 1.9 12.8 5.5l10.2-4.7c.6-.3 1.5-.4 2.5-.4 1.9 0 5.4.5 6.3 2.6.4.9.8 2.5-1 4-.9.7-2.3 1.4-4 2.2l-28.5 13c-.2.1-.4.1-.6.1zM53 58.3l5.6 2.5 27.7-12.6c1.5-.7 3.4-1.5 3.6-2 0 0 0-.1-.1-.2-.2-.3-1.7-.8-3.6-.8-.7 0-1.1.1-1.3.2l-11 5c-.5.2-1.1.2-1.6-.2-5.6-4.5-9.4-5.4-11.6-5.4-.4 0-.8 0-1.2.1l6.5 6.9c.3.3.5.8.4 1.2-.1.4-.3.8-.7 1.1l-6.2 3.8c-.2.1-.5.2-.7.2l-5.8.2z"></path></g></g></switch></g><!----></svg>