<?xml version="1.0" encoding="utf-8"?>
<!-- Generator: Adobe Illustrator 15.0.0, SVG Export Plug-In . SVG Version: 6.00 Build 0)  -->
<!DOCTYPE svg PUBLIC "-//W3C//DTD SVG 1.1//EN" "http://www.w3.org/Graphics/SVG/1.1/DTD/svg11.dtd">
<svg version="1.1" xmlns="http://www.w3.org/2000/svg" xmlns:xlink="http://www.w3.org/1999/xlink" x="0px" y="0px"
	 width="59.528px" height="87.874px" viewBox="0 0 59.528 87.874" enable-background="new 0 0 59.528 87.874" xml:space="preserve">
<g id="Layer_1" display="none">
	<g display="inline">
		<g>
			<radialGradient id="SVGID_1_" cx="36.2251" cy="21.873" r="44.186" gradientUnits="userSpaceOnUse">
				<stop  offset="0" style="stop-color:#434898"/>
				<stop  offset="0.5579" style="stop-color:#484898"/>
				<stop  offset="1" style="stop-color:#514696"/>
			</radialGradient>
			<path fill="url(#SVGID_1_)" d="M58.378,30.27c0-15.787-12.797-28.584-28.584-28.584c-15.787,0-28.584,12.797-28.584,28.584
				c0,5.15,1.368,9.978,3.751,14.153c8.36,14.658,20.252,35.492,23.797,41.7c0.212,0.373,0.606,0.602,1.034,0.602
				c0.428,0,0.824-0.229,1.037-0.6c3.544-6.208,15.436-27.043,23.806-41.702C57.01,40.248,58.378,35.419,58.378,30.27z"/>
			<radialGradient id="SVGID_2_" cx="36.2251" cy="21.873" r="44.186" gradientUnits="userSpaceOnUse">
				<stop  offset="0" style="stop-color:#434898"/>
				<stop  offset="0.5579" style="stop-color:#484898"/>
				<stop  offset="1" style="stop-color:#514696"/>
			</radialGradient>
			<path fill="url(#SVGID_2_)" d="M58.378,30.27c0-15.787-12.797-28.584-28.584-28.584c-15.787,0-28.584,12.797-28.584,28.584
				c0,5.15,1.368,9.978,3.751,14.153c8.36,14.658,20.252,35.492,23.797,41.7c0.212,0.373,0.606,0.602,1.034,0.602
				c0.428,0,0.824-0.229,1.037-0.6c3.544-6.208,15.436-27.043,23.806-41.702C57.01,40.248,58.378,35.419,58.378,30.27z"/>
			<defs>
				<filter id="Adobe_OpacityMaskFilter" filterUnits="userSpaceOnUse" x="1.463" y="34.091" width="56.66" height="52.634">
					<feFlood  style="flood-color:white;flood-opacity:1" result="back"/>
					<feBlend  in="SourceGraphic" in2="back" mode="normal"/>
				</filter>
			</defs>
			<mask maskUnits="userSpaceOnUse" x="1.463" y="34.091" width="56.66" height="52.634" id="SVGID_3_">
				<g filter="url(#Adobe_OpacityMaskFilter)">
					<defs>
						<filter id="Adobe_OpacityMaskFilter_1_" filterUnits="userSpaceOnUse" x="1.463" y="34.091" width="56.66" height="52.634">
							<feFlood  style="flood-color:white;flood-opacity:1" result="back"/>
							<feBlend  in="SourceGraphic" in2="back" mode="normal"/>
						</filter>
					</defs>
					<mask maskUnits="userSpaceOnUse" x="1.463" y="34.091" width="56.66" height="52.634" id="SVGID_3_">
						<g filter="url(#Adobe_OpacityMaskFilter_1_)">
						</g>
					</mask>
					<linearGradient id="SVGID_4_" gradientUnits="userSpaceOnUse" x1="7.9526" y1="74.2988" x2="37.9061" y2="22.4179">
						<stop  offset="0" style="stop-color:#FFFFFF"/>
						<stop  offset="0.1102" style="stop-color:#CBCBCB"/>
						<stop  offset="0.239" style="stop-color:#969696"/>
						<stop  offset="0.3696" style="stop-color:#686868"/>
						<stop  offset="0.4992" style="stop-color:#434343"/>
						<stop  offset="0.6276" style="stop-color:#252525"/>
						<stop  offset="0.7546" style="stop-color:#111111"/>
						<stop  offset="0.8795" style="stop-color:#040404"/>
						<stop  offset="1" style="stop-color:#000000"/>
					</linearGradient>
					<path mask="url(#SVGID_3_)" fill="url(#SVGID_4_)" d="M58.124,34.091c-0.673,2.815-1.787,5.475-3.275,7.911
						C45.902,56.66,29.92,84.008,29.794,84.149C29.667,84.008,13.686,56.66,4.74,42.002c-1.489-2.436-2.603-5.096-3.276-7.911
						c0.498,3.717,1.715,7.207,3.496,10.332c8.178,14.337,23.723,41.569,23.799,41.7c0.053,0.094,0.118,0.178,0.19,0.253
						c0.221,0.22,0.524,0.35,0.844,0.35h0.001h0.001c0.32,0,0.623-0.13,0.843-0.35c0.074-0.075,0.137-0.159,0.191-0.253
						c0.075-0.131,15.62-27.362,23.798-41.7C56.41,41.298,57.625,37.808,58.124,34.091z"/>
				</g>
			</mask>
			<linearGradient id="SVGID_5_" gradientUnits="userSpaceOnUse" x1="7.9526" y1="74.2988" x2="37.9061" y2="22.4179">
				<stop  offset="0" style="stop-color:#474596"/>
				<stop  offset="0.3921" style="stop-color:#4D4696"/>
				<stop  offset="1" style="stop-color:#514696"/>
			</linearGradient>
			<path fill="url(#SVGID_5_)" d="M58.124,34.091c-0.673,2.815-1.787,5.475-3.275,7.911C45.902,56.66,29.92,84.008,29.794,84.149
				C29.667,84.008,13.686,56.66,4.74,42.002c-1.489-2.436-2.603-5.096-3.276-7.911c0.498,3.717,1.715,7.207,3.496,10.332
				c8.178,14.337,23.723,41.569,23.799,41.7c0.053,0.094,0.118,0.178,0.19,0.253c0.221,0.22,0.524,0.35,0.844,0.35h0.001h0.001
				c0.32,0,0.623-0.13,0.843-0.35c0.074-0.075,0.137-0.159,0.191-0.253c0.075-0.131,15.62-27.362,23.798-41.7
				C56.41,41.298,57.625,37.808,58.124,34.091z"/>
			
				<linearGradient id="SVGID_6_" gradientUnits="userSpaceOnUse" x1="-9.5615" y1="-90.6899" x2="-9.5615" y2="-43.3638" gradientTransform="matrix(-0.7071 -0.7071 0.7071 -0.7071 70.4268 -23.8851)">
				<stop  offset="0" style="stop-color:#574A99"/>
				<stop  offset="0.7672" style="stop-color:#534897"/>
				<stop  offset="1" style="stop-color:#514696"/>
			</linearGradient>
			<path fill="url(#SVGID_6_)" d="M46.526,13.539c9.224,9.227,9.224,24.237,0,33.463c-9.228,9.228-24.238,9.228-33.465,0
				c-9.226-9.227-9.226-24.237,0-33.462C22.288,4.314,37.3,4.314,46.526,13.539z"/>
			<path fill="#514696" d="M45.476,14.587c8.646,8.648,8.646,22.719,0,31.367c-8.65,8.646-22.718,8.646-31.366,0
				c-8.647-8.648-8.647-22.718,0-31.367C22.758,5.941,36.828,5.941,45.476,14.587z"/>
			<defs>
				<filter id="Adobe_OpacityMaskFilter_2_" filterUnits="userSpaceOnUse" x="10.149" y="2.619" width="47.297" height="47.296">
					<feFlood  style="flood-color:white;flood-opacity:1" result="back"/>
					<feBlend  in="SourceGraphic" in2="back" mode="normal"/>
				</filter>
			</defs>
			<mask maskUnits="userSpaceOnUse" x="10.149" y="2.619" width="47.297" height="47.296" id="SVGID_7_">
				<g filter="url(#Adobe_OpacityMaskFilter_2_)">
					<defs>
						<filter id="Adobe_OpacityMaskFilter_3_" filterUnits="userSpaceOnUse" x="10.149" y="2.619" width="47.297" height="47.296">
							<feFlood  style="flood-color:white;flood-opacity:1" result="back"/>
							<feBlend  in="SourceGraphic" in2="back" mode="normal"/>
						</filter>
					</defs>
					<mask maskUnits="userSpaceOnUse" x="10.149" y="2.619" width="47.297" height="47.296" id="SVGID_7_">
						<g filter="url(#Adobe_OpacityMaskFilter_3_)">
						</g>
					</mask>
					<radialGradient id="SVGID_8_" cx="55.0532" cy="5.7578" r="43.7222" gradientUnits="userSpaceOnUse">
						<stop  offset="0" style="stop-color:#BFBFBF"/>
						<stop  offset="1" style="stop-color:#000000"/>
					</radialGradient>
					<path mask="url(#SVGID_7_)" fill="url(#SVGID_8_)" d="M57.446,29.896c0-15.065-12.214-27.277-27.281-27.277
						c-7.912,0-15.034,3.371-20.016,8.752c4.864-4.503,11.371-7.262,18.526-7.262c15.066,0,27.279,12.213,27.279,27.279
						c0,7.155-2.756,13.662-7.262,18.526C54.076,44.932,57.446,37.812,57.446,29.896z"/>
				</g>
			</mask>
			<radialGradient id="SVGID_9_" cx="55.0532" cy="5.7578" r="43.7222" gradientUnits="userSpaceOnUse">
				<stop  offset="0" style="stop-color:#BA85BA"/>
				<stop  offset="1" style="stop-color:#BA85BA"/>
			</radialGradient>
			<path fill="url(#SVGID_9_)" d="M57.446,29.896c0-15.065-12.214-27.277-27.281-27.277c-7.912,0-15.034,3.371-20.016,8.752
				c4.864-4.503,11.371-7.262,18.526-7.262c15.066,0,27.279,12.213,27.279,27.279c0,7.155-2.756,13.662-7.262,18.526
				C54.076,44.932,57.446,37.812,57.446,29.896z"/>
		</g>
		<g>
			<radialGradient id="SVGID_10_" cx="33.522" cy="24.585" r="28.1526" gradientUnits="userSpaceOnUse">
				<stop  offset="0" style="stop-color:#FFFFFF"/>
				<stop  offset="0.3287" style="stop-color:#FDFDFD"/>
				<stop  offset="0.5264" style="stop-color:#F6F6F6"/>
				<stop  offset="0.6894" style="stop-color:#E9E9E9"/>
				<stop  offset="0.8327" style="stop-color:#D8D8D8"/>
				<stop  offset="0.885" style="stop-color:#D0D0D0"/>
			</radialGradient>
			<path fill="url(#SVGID_10_)" d="M29.792,51.82c-11.882,0-21.548-9.666-21.548-21.551c0-11.88,9.666-21.549,21.548-21.549
				c11.884,0,21.551,9.668,21.551,21.549C51.343,42.155,41.676,51.82,29.792,51.82z"/>
			<defs>
				<filter id="Adobe_OpacityMaskFilter_4_" filterUnits="userSpaceOnUse" x="14.197" y="8.721" width="37.146" height="37.145">
					<feFlood  style="flood-color:white;flood-opacity:1" result="back"/>
					<feBlend  in="SourceGraphic" in2="back" mode="normal"/>
				</filter>
			</defs>
			<mask maskUnits="userSpaceOnUse" x="14.197" y="8.721" width="37.146" height="37.145" id="SVGID_11_">
				<g filter="url(#Adobe_OpacityMaskFilter_4_)">
					<defs>
						<filter id="Adobe_OpacityMaskFilter_5_" filterUnits="userSpaceOnUse" x="14.197" y="8.721" width="37.146" height="37.145">
							<feFlood  style="flood-color:white;flood-opacity:1" result="back"/>
							<feBlend  in="SourceGraphic" in2="back" mode="normal"/>
						</filter>
					</defs>
					<mask maskUnits="userSpaceOnUse" x="14.197" y="8.721" width="37.146" height="37.145" id="SVGID_11_">
						<g filter="url(#Adobe_OpacityMaskFilter_5_)">
						</g>
					</mask>
					<linearGradient id="SVGID_12_" gradientUnits="userSpaceOnUse" x1="29.4194" y1="30.644" x2="45.0239" y2="15.0396">
						<stop  offset="0" style="stop-color:#000000"/>
						<stop  offset="1" style="stop-color:#FFFFFF"/>
					</linearGradient>
					<path mask="url(#SVGID_11_)" fill="url(#SVGID_12_)" d="M29.792,8.721c-6.129,0-11.668,2.578-15.595,6.701
						c3.868-3.685,9.097-5.955,14.849-5.955c11.884,0,21.551,9.667,21.551,21.548c0,5.753-2.27,10.981-5.955,14.85
						c4.124-3.928,6.701-9.463,6.701-15.596C51.343,18.389,41.676,8.721,29.792,8.721z"/>
				</g>
			</mask>
			<linearGradient id="SVGID_13_" gradientUnits="userSpaceOnUse" x1="29.4194" y1="30.644" x2="45.0239" y2="15.0396">
				<stop  offset="0" style="stop-color:#FFFFFF"/>
				<stop  offset="1" style="stop-color:#D0D0D0"/>
			</linearGradient>
			<path fill="url(#SVGID_13_)" d="M29.792,8.721c-6.129,0-11.668,2.578-15.595,6.701c3.868-3.685,9.097-5.955,14.849-5.955
				c11.884,0,21.551,9.667,21.551,21.548c0,5.753-2.27,10.981-5.955,14.85c4.124-3.928,6.701-9.463,6.701-15.596
				C51.343,18.389,41.676,8.721,29.792,8.721z"/>
		</g>
		<path fill="#6D6D6D" d="M40.982,32.217v-1.022c0-0.447-0.263-0.854-0.673-1.03l-1.901-0.826c0-0.02,0.002-0.041,0.002-0.059
			c0-0.704-0.377-1.276-0.845-1.276c-0.316,0-0.589,0.26-0.736,0.647l-0.92-0.4c-0.01-0.841-0.463-1.516-1.02-1.516
			c-0.357,0-0.671,0.279-0.854,0.701l-2.007-0.875c0.088-1.662,0.134-3.155,0.134-4.258c0-1.592-1.508-3.219-2.369-3.219
			c-0.861,0-2.369,1.627-2.369,3.219c0,1.103,0.048,2.596,0.134,4.258l-2.007,0.875c-0.182-0.421-0.496-0.701-0.854-0.701
			c-0.558,0-1.01,0.675-1.02,1.516l-0.923,0.4c-0.144-0.387-0.418-0.647-0.734-0.647c-0.467,0-0.846,0.573-0.846,1.276
			c0,0.018,0.002,0.039,0.004,0.059l-1.901,0.826c-0.41,0.177-0.676,0.583-0.676,1.03v1.022l9.268-1.062
			c0.211,2.577,0.492,5.132,0.816,7.053l-3.125,2.37v0.88l3.602-0.843c0.02-0.004,0.043-0.006,0.063-0.011
			c0.182,0.543,0.371,0.854,0.566,0.854c0.197,0,0.386-0.311,0.567-0.854c0.021,0.004,0.042,0.006,0.062,0.011l3.604,0.843v-0.88
			l-3.125-2.37c0.323-1.921,0.603-4.477,0.818-7.053L40.982,32.217z M31.032,22.667c-0.317-0.709-0.963-0.862-1.233-0.892
			c-0.28,0.03-0.928,0.184-1.244,0.893c-0.02,0.046-0.064,0.068-0.106,0.056c-0.042-0.012-0.071-0.056-0.072-0.107
			c0-0.107,0-0.214,0-0.316c0-0.979,0.693-2.021,1.422-2.094c0.706,0.073,1.413,1.115,1.413,2.094c0,0.102,0,0.209-0.002,0.316
			c0,0.051-0.031,0.096-0.073,0.107C31.094,22.736,31.051,22.714,31.032,22.667z"/>
	</g>
</g>
<g id="Layer_2" display="none">
	<g display="inline">
		<g>
			<radialGradient id="SVGID_14_" cx="35.9604" cy="21.5889" r="44.1854" gradientUnits="userSpaceOnUse">
				<stop  offset="0" style="stop-color:#1E98D5"/>
				<stop  offset="0.1707" style="stop-color:#1C95D3"/>
				<stop  offset="0.3476" style="stop-color:#128DCE"/>
				<stop  offset="0.5274" style="stop-color:#0580C4"/>
				<stop  offset="0.7092" style="stop-color:#006EB6"/>
				<stop  offset="0.8907" style="stop-color:#0257A4"/>
				<stop  offset="1" style="stop-color:#044799"/>
			</radialGradient>
			<path fill="url(#SVGID_14_)" d="M58.114,29.986c0-15.788-12.798-28.585-28.584-28.585c-15.786,0-28.584,12.797-28.584,28.585
				c0,5.149,1.368,9.978,3.752,14.15c8.36,14.659,20.25,35.491,23.796,41.703c0.212,0.371,0.606,0.6,1.034,0.6
				c0.428,0.002,0.824-0.228,1.035-0.6c3.545-6.208,15.438-27.043,23.808-41.703C56.746,39.963,58.114,35.135,58.114,29.986z"/>
			<radialGradient id="SVGID_15_" cx="35.9604" cy="21.5889" r="44.1854" gradientUnits="userSpaceOnUse">
				<stop  offset="0" style="stop-color:#1E98D5"/>
				<stop  offset="0.1707" style="stop-color:#1C95D3"/>
				<stop  offset="0.3476" style="stop-color:#128DCE"/>
				<stop  offset="0.5274" style="stop-color:#0580C4"/>
				<stop  offset="0.7092" style="stop-color:#006EB6"/>
				<stop  offset="0.8907" style="stop-color:#0257A4"/>
				<stop  offset="1" style="stop-color:#044799"/>
			</radialGradient>
			<path fill="url(#SVGID_15_)" d="M58.114,29.986c0-15.788-12.798-28.585-28.584-28.585c-15.786,0-28.584,12.797-28.584,28.585
				c0,5.149,1.368,9.978,3.752,14.15c8.36,14.659,20.25,35.491,23.796,41.703c0.212,0.371,0.606,0.6,1.034,0.6
				c0.428,0.002,0.824-0.228,1.035-0.6c3.545-6.208,15.438-27.043,23.808-41.703C56.746,39.963,58.114,35.135,58.114,29.986z"/>
			<defs>
				<filter id="Adobe_OpacityMaskFilter_6_" filterUnits="userSpaceOnUse" x="1.199" y="33.805" width="56.661" height="52.635">
					<feFlood  style="flood-color:white;flood-opacity:1" result="back"/>
					<feBlend  in="SourceGraphic" in2="back" mode="normal"/>
				</filter>
			</defs>
			<mask maskUnits="userSpaceOnUse" x="1.199" y="33.805" width="56.661" height="52.635" id="SVGID_16_">
				<g filter="url(#Adobe_OpacityMaskFilter_6_)">
					<defs>
						<filter id="Adobe_OpacityMaskFilter_7_" filterUnits="userSpaceOnUse" x="1.199" y="33.805" width="56.661" height="52.635">
							<feFlood  style="flood-color:white;flood-opacity:1" result="back"/>
							<feBlend  in="SourceGraphic" in2="back" mode="normal"/>
						</filter>
					</defs>
					<mask maskUnits="userSpaceOnUse" x="1.199" y="33.805" width="56.661" height="52.635" id="SVGID_16_">
						<g filter="url(#Adobe_OpacityMaskFilter_7_)">
						</g>
					</mask>
					<linearGradient id="SVGID_17_" gradientUnits="userSpaceOnUse" x1="7.6899" y1="74.0117" x2="37.6423" y2="22.1327">
						<stop  offset="0" style="stop-color:#FFFFFF"/>
						<stop  offset="0.1102" style="stop-color:#CBCBCB"/>
						<stop  offset="0.239" style="stop-color:#969696"/>
						<stop  offset="0.3696" style="stop-color:#686868"/>
						<stop  offset="0.4992" style="stop-color:#434343"/>
						<stop  offset="0.6276" style="stop-color:#252525"/>
						<stop  offset="0.7546" style="stop-color:#111111"/>
						<stop  offset="0.8795" style="stop-color:#040404"/>
						<stop  offset="1" style="stop-color:#000000"/>
					</linearGradient>
					<path mask="url(#SVGID_16_)" fill="url(#SVGID_17_)" d="M54.583,41.716c-8.943,14.66-24.925,42.008-25.053,42.15
						c-0.127-0.142-16.11-27.49-25.052-42.15c-1.489-2.435-2.604-5.097-3.278-7.911c0.499,3.717,1.714,7.208,3.499,10.333
						c8.36,14.658,20.251,35.493,23.796,41.701c0.166,0.29,0.445,0.49,0.766,0.565c0.087,0.021,0.177,0.036,0.269,0.036l0,0h0.001
						c0.091,0,0.181-0.016,0.269-0.036c0.321-0.075,0.601-0.275,0.766-0.565C34.11,79.631,46,58.796,54.362,44.138
						c1.784-3.125,3-6.615,3.498-10.333C57.187,36.619,56.072,39.282,54.583,41.716z"/>
				</g>
			</mask>
			<linearGradient id="SVGID_18_" gradientUnits="userSpaceOnUse" x1="7.6899" y1="74.0117" x2="37.6423" y2="22.1327">
				<stop  offset="0" style="stop-color:#203B73"/>
				<stop  offset="0.0121" style="stop-color:#1F3B74"/>
				<stop  offset="0.2642" style="stop-color:#184084"/>
				<stop  offset="0.5149" style="stop-color:#0F448F"/>
				<stop  offset="0.7618" style="stop-color:#074796"/>
				<stop  offset="1" style="stop-color:#044799"/>
			</linearGradient>
			<path fill="url(#SVGID_18_)" d="M54.583,41.716c-8.943,14.66-24.925,42.008-25.053,42.15c-0.127-0.142-16.11-27.49-25.052-42.15
				c-1.489-2.435-2.604-5.097-3.278-7.911c0.499,3.717,1.714,7.208,3.499,10.333c8.36,14.658,20.251,35.493,23.796,41.701
				c0.166,0.29,0.445,0.49,0.766,0.565c0.087,0.021,0.177,0.036,0.269,0.036l0,0h0.001c0.091,0,0.181-0.016,0.269-0.036
				c0.321-0.075,0.601-0.275,0.766-0.565C34.11,79.631,46,58.796,54.362,44.138c1.784-3.125,3-6.615,3.498-10.333
				C57.187,36.619,56.072,39.282,54.583,41.716z"/>
			
				<linearGradient id="SVGID_19_" gradientUnits="userSpaceOnUse" x1="-9.1738" y1="-90.6743" x2="-9.1738" y2="-43.3496" gradientTransform="matrix(-0.7071 -0.7071 0.7071 -0.7071 70.4268 -23.8851)">
				<stop  offset="0" style="stop-color:#1E98D5"/>
				<stop  offset="0.1707" style="stop-color:#1C95D3"/>
				<stop  offset="0.3476" style="stop-color:#128DCE"/>
				<stop  offset="0.5274" style="stop-color:#0580C4"/>
				<stop  offset="0.7092" style="stop-color:#006EB6"/>
				<stop  offset="0.8907" style="stop-color:#0257A4"/>
				<stop  offset="1" style="stop-color:#044799"/>
			</linearGradient>
			<path fill="url(#SVGID_19_)" d="M46.261,13.253c9.228,9.227,9.228,24.237,0,33.464c-9.226,9.226-24.238,9.226-33.462,0
				c-9.23-9.227-9.23-24.237,0-33.464C22.023,4.028,37.036,4.028,46.261,13.253z"/>
			<path fill="#044799" d="M45.21,14.301c8.65,8.649,8.65,22.72,0,31.368c-8.646,8.647-22.717,8.647-31.364,0
				c-8.649-8.648-8.649-22.719,0-31.368C22.494,5.655,36.564,5.655,45.21,14.301z"/>
			<defs>
				<filter id="Adobe_OpacityMaskFilter_8_" filterUnits="userSpaceOnUse" x="9.884" y="2.334" width="47.298" height="47.296">
					<feFlood  style="flood-color:white;flood-opacity:1" result="back"/>
					<feBlend  in="SourceGraphic" in2="back" mode="normal"/>
				</filter>
			</defs>
			<mask maskUnits="userSpaceOnUse" x="9.884" y="2.334" width="47.298" height="47.296" id="SVGID_20_">
				<g filter="url(#Adobe_OpacityMaskFilter_8_)">
					<defs>
						<filter id="Adobe_OpacityMaskFilter_9_" filterUnits="userSpaceOnUse" x="9.884" y="2.334" width="47.298" height="47.296">
							<feFlood  style="flood-color:white;flood-opacity:1" result="back"/>
							<feBlend  in="SourceGraphic" in2="back" mode="normal"/>
						</filter>
					</defs>
					<mask maskUnits="userSpaceOnUse" x="9.884" y="2.334" width="47.298" height="47.296" id="SVGID_20_">
						<g filter="url(#Adobe_OpacityMaskFilter_9_)">
						</g>
					</mask>
					<radialGradient id="SVGID_21_" cx="54.7886" cy="5.4727" r="43.7222" gradientUnits="userSpaceOnUse">
						<stop  offset="0" style="stop-color:#BFBFBF"/>
						<stop  offset="1" style="stop-color:#000000"/>
					</radialGradient>
					<path mask="url(#SVGID_20_)" fill="url(#SVGID_21_)" d="M57.182,29.613c0-15.066-12.215-27.279-27.28-27.279
						c-7.913,0-15.037,3.371-20.018,8.752c4.864-4.503,11.373-7.263,18.526-7.263c15.066,0,27.279,12.216,27.279,27.28
						c0,7.154-2.758,13.661-7.262,18.526C53.81,44.648,57.182,37.525,57.182,29.613z"/>
				</g>
			</mask>
			<radialGradient id="SVGID_22_" cx="54.7886" cy="5.4727" r="43.7222" gradientUnits="userSpaceOnUse">
				<stop  offset="0" style="stop-color:#6EC8E8"/>
				<stop  offset="1" style="stop-color:#6EC8E8"/>
			</radialGradient>
			<path fill="url(#SVGID_22_)" d="M57.182,29.613c0-15.066-12.215-27.279-27.28-27.279c-7.913,0-15.037,3.371-20.018,8.752
				c4.864-4.503,11.373-7.263,18.526-7.263c15.066,0,27.279,12.216,27.279,27.28c0,7.154-2.758,13.661-7.262,18.526
				C53.81,44.648,57.182,37.525,57.182,29.613z"/>
		</g>
		<g>
			<radialGradient id="SVGID_23_" cx="33.2573" cy="24.3013" r="28.1523" gradientUnits="userSpaceOnUse">
				<stop  offset="0" style="stop-color:#FFFFFF"/>
				<stop  offset="0.3287" style="stop-color:#FDFDFD"/>
				<stop  offset="0.5264" style="stop-color:#F6F6F6"/>
				<stop  offset="0.6894" style="stop-color:#E9E9E9"/>
				<stop  offset="0.8327" style="stop-color:#D8D8D8"/>
				<stop  offset="0.885" style="stop-color:#D0D0D0"/>
			</radialGradient>
			<path fill="url(#SVGID_23_)" d="M29.529,51.536c-11.882,0-21.549-9.667-21.549-21.55c0-11.882,9.667-21.548,21.549-21.548
				c11.883,0,21.549,9.667,21.549,21.548C51.079,41.869,41.413,51.536,29.529,51.536z"/>
			<defs>
				<filter id="Adobe_OpacityMaskFilter_10_" filterUnits="userSpaceOnUse" x="13.936" y="8.438" width="37.143" height="37.143">
					<feFlood  style="flood-color:white;flood-opacity:1" result="back"/>
					<feBlend  in="SourceGraphic" in2="back" mode="normal"/>
				</filter>
			</defs>
			<mask maskUnits="userSpaceOnUse" x="13.936" y="8.438" width="37.143" height="37.143" id="SVGID_24_">
				<g filter="url(#Adobe_OpacityMaskFilter_10_)">
					<defs>
						<filter id="Adobe_OpacityMaskFilter_11_" filterUnits="userSpaceOnUse" x="13.936" y="8.438" width="37.143" height="37.143">
							<feFlood  style="flood-color:white;flood-opacity:1" result="back"/>
							<feBlend  in="SourceGraphic" in2="back" mode="normal"/>
						</filter>
					</defs>
					<mask maskUnits="userSpaceOnUse" x="13.936" y="8.438" width="37.143" height="37.143" id="SVGID_24_">
						<g filter="url(#Adobe_OpacityMaskFilter_11_)">
						</g>
					</mask>
					<linearGradient id="SVGID_25_" gradientUnits="userSpaceOnUse" x1="29.1582" y1="30.3589" x2="44.7607" y2="14.7564">
						<stop  offset="0" style="stop-color:#000000"/>
						<stop  offset="1" style="stop-color:#FFFFFF"/>
					</linearGradient>
					<path mask="url(#SVGID_24_)" fill="url(#SVGID_25_)" d="M29.529,8.438c-6.132,0-11.667,2.576-15.593,6.699
						c3.867-3.685,9.096-5.955,14.849-5.955c11.882,0,21.547,9.668,21.547,21.551c0,5.752-2.267,10.979-5.952,14.848
						c4.12-3.927,6.699-9.465,6.699-15.594C51.079,18.104,41.413,8.438,29.529,8.438z"/>
				</g>
			</mask>
			<linearGradient id="SVGID_26_" gradientUnits="userSpaceOnUse" x1="29.1582" y1="30.3589" x2="44.7607" y2="14.7564">
				<stop  offset="0" style="stop-color:#FFFFFF"/>
				<stop  offset="1" style="stop-color:#D0D0D0"/>
			</linearGradient>
			<path fill="url(#SVGID_26_)" d="M29.529,8.438c-6.132,0-11.667,2.576-15.593,6.699c3.867-3.685,9.096-5.955,14.849-5.955
				c11.882,0,21.547,9.668,21.547,21.551c0,5.752-2.267,10.979-5.952,14.848c4.12-3.927,6.699-9.465,6.699-15.594
				C51.079,18.104,41.413,8.438,29.529,8.438z"/>
		</g>
		<path fill="#6D6D6D" d="M28.29,18.797c-0.185,0-0.339,0.147-0.349,0.336l0.037,4.699c-0.012,0.312-0.268,0.56-0.582,0.56
			s-0.568-0.248-0.58-0.56l-0.188-4.699c-0.008-0.188-0.163-0.336-0.349-0.336c-0.189,0-0.344,0.147-0.351,0.336l-0.187,4.699
			c-0.014,0.312-0.271,0.56-0.583,0.56c-0.313,0-0.57-0.248-0.583-0.56l0.037-4.699c-0.009-0.188-0.16-0.336-0.349-0.336
			c-0.188,0-0.342,0.147-0.35,0.336c-0.195,4.859-0.353,5.745-0.198,6.673c0.132,0.786,0.671,1.444,1.417,1.726
			c0,0,0.073,0.063,0.164,0.131c0.224,0.163,0.336,0.439,0.287,0.712c-0.514,2.881-0.871,8.228-0.871,10.681
			c0,1.046,0.996,2.118,1.566,2.118c0.567,0,1.564-1.072,1.564-2.118c0-2.453-0.354-7.8-0.872-10.681
			c-0.048-0.273,0.063-0.549,0.287-0.712c0.091-0.068,0.164-0.131,0.164-0.131c0.746-0.282,1.285-0.939,1.417-1.726
			c0.155-0.928-0.004-1.814-0.198-6.673C28.634,18.945,28.479,18.797,28.29,18.797z M32.394,23.146
			c-0.516,1.747-0.921,5.885-0.437,7.476c0.186,0.613,1.024,0.925,1.542,1.112c0.203,0.071,0.324,0.279,0.292,0.492
			c-0.448,2.798-1.517,4.781-1.517,6.825c0,1.05,0.997,2.124,1.563,2.124c0.571,0,1.566-1.074,1.566-2.124c0,0,0-3.229,0-19.919
			C35.405,18.203,33.584,19.108,32.394,23.146z"/>
	</g>
</g>
<g id="Layer_3" display="none">
	<g display="inline">
		<g>
			<path fill="#E52824" d="M58.18,29.998c0-15.787-12.798-28.584-28.585-28.584c-15.787,0-28.583,12.797-28.583,28.584
				c0,5.148,1.368,9.978,3.751,14.149c8.361,14.659,20.251,35.493,23.796,41.705c0.212,0.37,0.607,0.601,1.035,0.601
				s0.823-0.229,1.036-0.601c3.544-6.209,15.437-27.044,23.807-41.705C56.81,39.976,58.18,35.146,58.18,29.998z"/>
			<defs>
				<filter id="Adobe_OpacityMaskFilter_12_" filterUnits="userSpaceOnUse" x="1.266" y="33.817" width="56.66" height="52.636">
					<feFlood  style="flood-color:white;flood-opacity:1" result="back"/>
					<feBlend  in="SourceGraphic" in2="back" mode="normal"/>
				</filter>
			</defs>
			<mask maskUnits="userSpaceOnUse" x="1.266" y="33.817" width="56.66" height="52.636" id="SVGID_27_">
				<g filter="url(#Adobe_OpacityMaskFilter_12_)">
					<defs>
						<filter id="Adobe_OpacityMaskFilter_13_" filterUnits="userSpaceOnUse" x="1.266" y="33.817" width="56.66" height="52.636">
							<feFlood  style="flood-color:white;flood-opacity:1" result="back"/>
							<feBlend  in="SourceGraphic" in2="back" mode="normal"/>
						</filter>
					</defs>
					<mask maskUnits="userSpaceOnUse" x="1.266" y="33.817" width="56.66" height="52.636" id="SVGID_27_">
						<g filter="url(#Adobe_OpacityMaskFilter_13_)">
						</g>
					</mask>
					<linearGradient id="SVGID_28_" gradientUnits="userSpaceOnUse" x1="7.7539" y1="74.0273" x2="37.7083" y2="22.1449">
						<stop  offset="0" style="stop-color:#FFFFFF"/>
						<stop  offset="0.1102" style="stop-color:#CBCBCB"/>
						<stop  offset="0.239" style="stop-color:#969696"/>
						<stop  offset="0.3696" style="stop-color:#686868"/>
						<stop  offset="0.4992" style="stop-color:#434343"/>
						<stop  offset="0.6276" style="stop-color:#252525"/>
						<stop  offset="0.7546" style="stop-color:#111111"/>
						<stop  offset="0.8795" style="stop-color:#040404"/>
						<stop  offset="1" style="stop-color:#000000"/>
					</linearGradient>
					<path mask="url(#SVGID_27_)" fill="url(#SVGID_28_)" d="M57.925,33.817c-0.675,2.816-1.789,5.476-3.277,7.912
						c-8.944,14.659-24.926,42.007-25.053,42.149c-0.127-0.143-16.108-27.49-25.053-42.149c-1.488-2.437-2.603-5.096-3.277-7.912
						c0.499,3.717,1.714,7.208,3.498,10.332c7.618,13.358,23.481,41.15,23.796,41.702c0.212,0.372,0.606,0.603,1.035,0.603h0h0
						c0.429,0,0.823-0.23,1.035-0.603c0.315-0.552,16.178-28.344,23.796-41.702C56.211,41.026,57.425,37.535,57.925,33.817z"/>
				</g>
			</mask>
			<path fill="#6A150F" d="M57.925,33.817c-0.675,2.816-1.789,5.476-3.277,7.912c-8.944,14.659-24.926,42.007-25.053,42.149
				c-0.127-0.143-16.108-27.49-25.053-42.149c-1.488-2.437-2.603-5.096-3.277-7.912c0.499,3.717,1.714,7.208,3.498,10.332
				c7.618,13.358,23.481,41.15,23.796,41.702c0.212,0.372,0.606,0.603,1.035,0.603h0h0c0.429,0,0.823-0.23,1.035-0.603
				c0.315-0.552,16.178-28.344,23.796-41.702C56.211,41.026,57.425,37.535,57.925,33.817z"/>
			<path fill="#CC1718" d="M46.327,13.266c9.226,9.229,9.226,24.239,0,33.466c-9.227,9.225-24.237,9.225-33.463,0
				c-9.226-9.227-9.226-24.237,0-33.466C22.089,4.042,37.102,4.042,46.327,13.266z"/>
			<path fill="#E62551" d="M45.277,14.315c8.649,8.647,8.649,22.718,0,31.367c-8.646,8.647-22.717,8.647-31.364,0
				c-8.648-8.649-8.648-22.72,0-31.367C22.56,5.668,36.63,5.668,45.277,14.315z"/>
			<defs>
				<filter id="Adobe_OpacityMaskFilter_14_" filterUnits="userSpaceOnUse" x="9.951" y="2.346" width="47.296" height="47.296">
					<feFlood  style="flood-color:white;flood-opacity:1" result="back"/>
					<feBlend  in="SourceGraphic" in2="back" mode="normal"/>
				</filter>
			</defs>
			<mask maskUnits="userSpaceOnUse" x="9.951" y="2.346" width="47.296" height="47.296" id="SVGID_29_">
				<g filter="url(#Adobe_OpacityMaskFilter_14_)">
					<defs>
						<filter id="Adobe_OpacityMaskFilter_15_" filterUnits="userSpaceOnUse" x="9.951" y="2.346" width="47.296" height="47.296">
							<feFlood  style="flood-color:white;flood-opacity:1" result="back"/>
							<feBlend  in="SourceGraphic" in2="back" mode="normal"/>
						</filter>
					</defs>
					<mask maskUnits="userSpaceOnUse" x="9.951" y="2.346" width="47.296" height="47.296" id="SVGID_29_">
						<g filter="url(#Adobe_OpacityMaskFilter_15_)">
						</g>
					</mask>
					<radialGradient id="SVGID_30_" cx="54.854" cy="5.4849" r="43.7227" gradientUnits="userSpaceOnUse">
						<stop  offset="0" style="stop-color:#BFBFBF"/>
						<stop  offset="1" style="stop-color:#000000"/>
					</radialGradient>
					<path mask="url(#SVGID_29_)" fill="url(#SVGID_30_)" d="M57.248,29.625c0-15.065-12.214-27.278-27.279-27.278
						c-7.914,0-15.035,3.374-20.017,8.752c4.864-4.505,11.373-7.26,18.526-7.26c15.066,0,27.279,12.212,27.279,27.28
						c0,7.152-2.757,13.661-7.262,18.524C53.876,44.661,57.248,37.537,57.248,29.625z"/>
				</g>
			</mask>
			<path fill="#E00C5C" d="M57.248,29.625c0-15.065-12.214-27.278-27.279-27.278c-7.914,0-15.035,3.374-20.017,8.752
				c4.864-4.505,11.373-7.26,18.526-7.26c15.066,0,27.279,12.212,27.279,27.28c0,7.152-2.757,13.661-7.262,18.524
				C53.876,44.661,57.248,37.537,57.248,29.625z"/>
		</g>
		<g>
			<radialGradient id="SVGID_31_" cx="33.3247" cy="24.3125" r="28.154" gradientUnits="userSpaceOnUse">
				<stop  offset="0" style="stop-color:#FFFFFF"/>
				<stop  offset="0.3287" style="stop-color:#FDFDFD"/>
				<stop  offset="0.5264" style="stop-color:#F6F6F6"/>
				<stop  offset="0.6894" style="stop-color:#E9E9E9"/>
				<stop  offset="0.8327" style="stop-color:#D8D8D8"/>
				<stop  offset="0.885" style="stop-color:#D0D0D0"/>
			</radialGradient>
			<path fill="url(#SVGID_31_)" d="M29.595,51.55c-11.881,0-21.549-9.669-21.549-21.552c0-11.882,9.668-21.551,21.549-21.551
				c11.884,0,21.551,9.669,21.551,21.551C51.146,41.881,41.479,51.55,29.595,51.55z"/>
			<defs>
				<filter id="Adobe_OpacityMaskFilter_16_" filterUnits="userSpaceOnUse" x="14.001" y="8.447" width="37.145" height="37.146">
					<feFlood  style="flood-color:white;flood-opacity:1" result="back"/>
					<feBlend  in="SourceGraphic" in2="back" mode="normal"/>
				</filter>
			</defs>
			<mask maskUnits="userSpaceOnUse" x="14.001" y="8.447" width="37.145" height="37.146" id="SVGID_32_">
				<g filter="url(#Adobe_OpacityMaskFilter_16_)">
					<defs>
						<filter id="Adobe_OpacityMaskFilter_17_" filterUnits="userSpaceOnUse" x="14.001" y="8.447" width="37.145" height="37.146">
							<feFlood  style="flood-color:white;flood-opacity:1" result="back"/>
							<feBlend  in="SourceGraphic" in2="back" mode="normal"/>
						</filter>
					</defs>
					<mask maskUnits="userSpaceOnUse" x="14.001" y="8.447" width="37.145" height="37.146" id="SVGID_32_">
						<g filter="url(#Adobe_OpacityMaskFilter_17_)">
						</g>
					</mask>
					<linearGradient id="SVGID_33_" gradientUnits="userSpaceOnUse" x1="29.2227" y1="30.3726" x2="44.8276" y2="14.7676">
						<stop  offset="0" style="stop-color:#000000"/>
						<stop  offset="1" style="stop-color:#FFFFFF"/>
					</linearGradient>
					<path mask="url(#SVGID_32_)" fill="url(#SVGID_33_)" d="M29.595,8.447c-6.131,0-11.667,2.578-15.594,6.703
						c3.868-3.686,9.096-5.956,14.849-5.956c11.883,0,21.55,9.668,21.55,21.551c0,5.752-2.27,10.979-5.956,14.848
						c4.124-3.929,6.702-9.465,6.702-15.596C51.146,18.116,41.479,8.447,29.595,8.447z"/>
				</g>
			</mask>
			<linearGradient id="SVGID_34_" gradientUnits="userSpaceOnUse" x1="29.2227" y1="30.3726" x2="44.8276" y2="14.7676">
				<stop  offset="0" style="stop-color:#FFFFFF"/>
				<stop  offset="1" style="stop-color:#D0D0D0"/>
			</linearGradient>
			<path fill="url(#SVGID_34_)" d="M29.595,8.447c-6.131,0-11.667,2.578-15.594,6.703c3.868-3.686,9.096-5.956,14.849-5.956
				c11.883,0,21.55,9.668,21.55,21.551c0,5.752-2.27,10.979-5.956,14.848c4.124-3.929,6.702-9.465,6.702-15.596
				C51.146,18.116,41.479,8.447,29.595,8.447z"/>
		</g>
		<path fill="#6D6D6D" d="M18.856,32.237h19.689v-2.239c0-1.234-1.001-2.236-2.237-2.236H20.646c-1.236,0-2.238,1.002-2.238,2.236
			v1.791C18.408,32.036,18.609,32.237,18.856,32.237z M35.789,27.121c2.141-1.235,2.757-4.175,2.757-4.175s-2.854-0.935-4.994,0.302
			c-2.14,1.233-2.756,4.173-2.756,4.173S33.649,28.359,35.789,27.121z M40.336,22.17h-1.342c-0.247,0-0.448,0.201-0.448,0.448
			v10.739H18.854c-0.248,0-0.448,0.201-0.448,0.448v1.789h0.001v1.791c0,0.247,0.201,0.447,0.448,0.447h1.343
			c0.247,0,0.448-0.201,0.448-0.447v-1.791h17.901v1.791c0,0.247,0.201,0.447,0.448,0.447h1.342c0.247,0,0.447-0.201,0.447-0.447
			V22.618C40.784,22.371,40.583,22.17,40.336,22.17z"/>
	</g>
</g>
<g id="Layer_4" display="none">
	<g display="inline">
		<g>
			<radialGradient id="SVGID_35_" cx="36.0269" cy="21.6021" r="44.186" gradientUnits="userSpaceOnUse">
				<stop  offset="0" style="stop-color:#6DC6D9"/>
				<stop  offset="0.3052" style="stop-color:#67C3DA"/>
				<stop  offset="0.6214" style="stop-color:#53BADD"/>
				<stop  offset="0.9416" style="stop-color:#28AAE0"/>
				<stop  offset="1" style="stop-color:#17A7E0"/>
			</radialGradient>
			<path fill="url(#SVGID_35_)" d="M58.179,29.998c0-15.787-12.797-28.584-28.584-28.584c-15.787,0-28.584,12.797-28.584,28.584
				c0,5.148,1.368,9.978,3.752,14.15c8.361,14.659,20.251,35.493,23.796,41.704c0.212,0.371,0.607,0.602,1.035,0.602
				c0.428,0,0.823-0.229,1.036-0.601c3.544-6.209,15.437-27.044,23.807-41.705C56.81,39.976,58.179,35.146,58.179,29.998z"/>
			<defs>
				<filter id="Adobe_OpacityMaskFilter_18_" filterUnits="userSpaceOnUse" x="1.266" y="33.817" width="56.659" height="52.636">
					<feFlood  style="flood-color:white;flood-opacity:1" result="back"/>
					<feBlend  in="SourceGraphic" in2="back" mode="normal"/>
				</filter>
			</defs>
			<mask maskUnits="userSpaceOnUse" x="1.266" y="33.817" width="56.659" height="52.636" id="SVGID_36_">
				<g filter="url(#Adobe_OpacityMaskFilter_18_)">
					<defs>
						<filter id="Adobe_OpacityMaskFilter_19_" filterUnits="userSpaceOnUse" x="1.266" y="33.817" width="56.659" height="52.636">
							<feFlood  style="flood-color:white;flood-opacity:1" result="back"/>
							<feBlend  in="SourceGraphic" in2="back" mode="normal"/>
						</filter>
					</defs>
					<mask maskUnits="userSpaceOnUse" x="1.266" y="33.817" width="56.659" height="52.636" id="SVGID_36_">
						<g filter="url(#Adobe_OpacityMaskFilter_19_)">
						</g>
					</mask>
					<linearGradient id="SVGID_37_" gradientUnits="userSpaceOnUse" x1="7.7539" y1="74.0273" x2="37.708" y2="22.1453">
						<stop  offset="0" style="stop-color:#FFFFFF"/>
						<stop  offset="0.1102" style="stop-color:#CBCBCB"/>
						<stop  offset="0.239" style="stop-color:#969696"/>
						<stop  offset="0.3696" style="stop-color:#686868"/>
						<stop  offset="0.4992" style="stop-color:#434343"/>
						<stop  offset="0.6276" style="stop-color:#252525"/>
						<stop  offset="0.7546" style="stop-color:#111111"/>
						<stop  offset="0.8795" style="stop-color:#040404"/>
						<stop  offset="1" style="stop-color:#000000"/>
					</linearGradient>
					<path mask="url(#SVGID_36_)" fill="url(#SVGID_37_)" d="M57.924,33.817c-0.674,2.816-1.788,5.476-3.276,7.912
						c-8.944,14.658-24.926,42.007-25.053,42.149c-0.127-0.143-16.108-27.491-25.053-42.149c-1.488-2.437-2.603-5.096-3.276-7.912
						c0.499,3.717,1.713,7.209,3.498,10.332c7.618,13.358,23.481,41.15,23.796,41.702c0.212,0.372,0.606,0.603,1.035,0.603h0.001h0
						c0.429,0,0.823-0.23,1.035-0.603c0.315-0.552,16.179-28.344,23.797-41.702C56.211,41.026,57.425,37.534,57.924,33.817z"/>
				</g>
			</mask>
			<linearGradient id="SVGID_38_" gradientUnits="userSpaceOnUse" x1="7.7539" y1="74.0273" x2="37.708" y2="22.1453">
				<stop  offset="0" style="stop-color:#008BBF"/>
				<stop  offset="0.0698" style="stop-color:#028EC3"/>
				<stop  offset="0.3861" style="stop-color:#0C9CD3"/>
				<stop  offset="0.6985" style="stop-color:#14A4DD"/>
				<stop  offset="1" style="stop-color:#17A7E0"/>
			</linearGradient>
			<path fill="url(#SVGID_38_)" d="M57.924,33.817c-0.674,2.816-1.788,5.476-3.276,7.912c-8.944,14.658-24.926,42.007-25.053,42.149
				c-0.127-0.143-16.108-27.491-25.053-42.149c-1.488-2.437-2.603-5.096-3.276-7.912c0.499,3.717,1.713,7.209,3.498,10.332
				c7.618,13.358,23.481,41.15,23.796,41.702c0.212,0.372,0.606,0.603,1.035,0.603h0.001h0c0.429,0,0.823-0.23,1.035-0.603
				c0.315-0.552,16.179-28.344,23.797-41.702C56.211,41.026,57.425,37.534,57.924,33.817z"/>
			
				<linearGradient id="SVGID_39_" gradientUnits="userSpaceOnUse" x1="-9.2285" y1="-90.6382" x2="-9.2285" y2="-43.312" gradientTransform="matrix(-0.7071 -0.7071 0.7071 -0.7071 70.4268 -23.8851)">
				<stop  offset="0" style="stop-color:#6DC6D9"/>
				<stop  offset="0.3052" style="stop-color:#67C3DA"/>
				<stop  offset="0.6214" style="stop-color:#53BADD"/>
				<stop  offset="0.9416" style="stop-color:#28AAE0"/>
				<stop  offset="1" style="stop-color:#17A7E0"/>
			</linearGradient>
			<path fill="url(#SVGID_39_)" d="M46.327,13.266c9.226,9.229,9.226,24.239,0,33.466c-9.227,9.226-24.237,9.226-33.463,0
				c-9.226-9.227-9.226-24.237,0-33.466C22.089,4.042,37.101,4.042,46.327,13.266z"/>
			<path fill="#17A7E0" d="M45.277,14.315c8.649,8.647,8.649,22.718,0,31.367c-8.647,8.647-22.717,8.647-31.365,0
				c-8.647-8.648-8.647-22.72,0-31.367C22.56,5.668,36.63,5.668,45.277,14.315z"/>
			<defs>
				<filter id="Adobe_OpacityMaskFilter_20_" filterUnits="userSpaceOnUse" x="9.951" y="2.346" width="47.297" height="47.297">
					<feFlood  style="flood-color:white;flood-opacity:1" result="back"/>
					<feBlend  in="SourceGraphic" in2="back" mode="normal"/>
				</filter>
			</defs>
			<mask maskUnits="userSpaceOnUse" x="9.951" y="2.346" width="47.297" height="47.297" id="SVGID_40_">
				<g filter="url(#Adobe_OpacityMaskFilter_20_)">
					<defs>
						<filter id="Adobe_OpacityMaskFilter_21_" filterUnits="userSpaceOnUse" x="9.951" y="2.346" width="47.297" height="47.297">
							<feFlood  style="flood-color:white;flood-opacity:1" result="back"/>
							<feBlend  in="SourceGraphic" in2="back" mode="normal"/>
						</filter>
					</defs>
					<mask maskUnits="userSpaceOnUse" x="9.951" y="2.346" width="47.297" height="47.297" id="SVGID_40_">
						<g filter="url(#Adobe_OpacityMaskFilter_21_)">
						</g>
					</mask>
					<radialGradient id="SVGID_41_" cx="54.855" cy="5.4854" r="43.7232" gradientUnits="userSpaceOnUse">
						<stop  offset="0" style="stop-color:#BFBFBF"/>
						<stop  offset="1" style="stop-color:#000000"/>
					</radialGradient>
					<path mask="url(#SVGID_40_)" fill="url(#SVGID_41_)" d="M57.248,29.625c0-15.065-12.214-27.278-27.28-27.278
						c-7.913,0-15.035,3.374-20.017,8.752c4.865-4.505,11.373-7.26,18.526-7.26c15.066,0,27.279,12.212,27.279,27.28
						c0,7.153-2.757,13.661-7.263,18.525C53.875,44.661,57.248,37.537,57.248,29.625z"/>
				</g>
			</mask>
			<radialGradient id="SVGID_42_" cx="54.855" cy="5.4854" r="43.7232" gradientUnits="userSpaceOnUse">
				<stop  offset="0" style="stop-color:#82CDDE"/>
				<stop  offset="1" style="stop-color:#82CDDE"/>
			</radialGradient>
			<path fill="url(#SVGID_42_)" d="M57.248,29.625c0-15.065-12.214-27.278-27.28-27.278c-7.913,0-15.035,3.374-20.017,8.752
				c4.865-4.505,11.373-7.26,18.526-7.26c15.066,0,27.279,12.212,27.279,27.28c0,7.153-2.757,13.661-7.263,18.525
				C53.875,44.661,57.248,37.537,57.248,29.625z"/>
		</g>
		<g>
			<radialGradient id="SVGID_43_" cx="33.3237" cy="24.3125" r="28.154" gradientUnits="userSpaceOnUse">
				<stop  offset="0" style="stop-color:#FFFFFF"/>
				<stop  offset="0.3287" style="stop-color:#FDFDFD"/>
				<stop  offset="0.5264" style="stop-color:#F6F6F6"/>
				<stop  offset="0.6894" style="stop-color:#E9E9E9"/>
				<stop  offset="0.8327" style="stop-color:#D8D8D8"/>
				<stop  offset="0.885" style="stop-color:#D0D0D0"/>
			</radialGradient>
			<path fill="url(#SVGID_43_)" d="M29.595,51.55c-11.882,0-21.549-9.669-21.549-21.552c0-11.881,9.667-21.55,21.549-21.55
				c11.884,0,21.55,9.669,21.55,21.55C51.145,41.881,41.479,51.55,29.595,51.55z"/>
			<defs>
				<filter id="Adobe_OpacityMaskFilter_22_" filterUnits="userSpaceOnUse" x="14" y="8.447" width="37.145" height="37.146">
					<feFlood  style="flood-color:white;flood-opacity:1" result="back"/>
					<feBlend  in="SourceGraphic" in2="back" mode="normal"/>
				</filter>
			</defs>
			<mask maskUnits="userSpaceOnUse" x="14" y="8.447" width="37.145" height="37.146" id="SVGID_44_">
				<g filter="url(#Adobe_OpacityMaskFilter_22_)">
					<defs>
						<filter id="Adobe_OpacityMaskFilter_23_" filterUnits="userSpaceOnUse" x="14" y="8.447" width="37.145" height="37.146">
							<feFlood  style="flood-color:white;flood-opacity:1" result="back"/>
							<feBlend  in="SourceGraphic" in2="back" mode="normal"/>
						</filter>
					</defs>
					<mask maskUnits="userSpaceOnUse" x="14" y="8.447" width="37.145" height="37.146" id="SVGID_44_">
						<g filter="url(#Adobe_OpacityMaskFilter_23_)">
						</g>
					</mask>
					<linearGradient id="SVGID_45_" gradientUnits="userSpaceOnUse" x1="29.2222" y1="30.3721" x2="44.8269" y2="14.7673">
						<stop  offset="0" style="stop-color:#000000"/>
						<stop  offset="1" style="stop-color:#FFFFFF"/>
					</linearGradient>
					<path mask="url(#SVGID_44_)" fill="url(#SVGID_45_)" d="M29.595,8.447c-6.131,0-11.668,2.578-15.595,6.703
						c3.868-3.685,9.097-5.956,14.849-5.956c11.884,0,21.551,9.668,21.551,21.552c0,5.752-2.27,10.979-5.956,14.848
						c4.124-3.929,6.701-9.465,6.701-15.596C51.145,18.116,41.479,8.447,29.595,8.447z"/>
				</g>
			</mask>
			<linearGradient id="SVGID_46_" gradientUnits="userSpaceOnUse" x1="29.2222" y1="30.3721" x2="44.8269" y2="14.7673">
				<stop  offset="0" style="stop-color:#FFFFFF"/>
				<stop  offset="1" style="stop-color:#D0D0D0"/>
			</linearGradient>
			<path fill="url(#SVGID_46_)" d="M29.595,8.447c-6.131,0-11.668,2.578-15.595,6.703c3.868-3.685,9.097-5.956,14.849-5.956
				c11.884,0,21.551,9.668,21.551,21.552c0,5.752-2.27,10.979-5.956,14.848c4.124-3.929,6.701-9.465,6.701-15.596
				C51.145,18.116,41.479,8.447,29.595,8.447z"/>
		</g>
		<path fill="#6D6D6D" d="M18.856,32.237h19.688v-2.239c0-1.234-1.001-2.236-2.236-2.236H20.646c-1.236,0-2.238,1.002-2.238,2.236
			v1.791C18.408,32.036,18.609,32.237,18.856,32.237z M35.788,27.121c2.142-1.235,2.757-4.175,2.757-4.175s-2.853-0.935-4.993,0.302
			c-2.141,1.233-2.757,4.173-2.757,4.173S33.649,28.359,35.788,27.121z M40.336,22.17h-1.343c-0.246,0-0.447,0.201-0.447,0.448
			v10.739H18.854c-0.248,0-0.448,0.201-0.448,0.448v1.789h0.001v1.791c0,0.247,0.201,0.447,0.447,0.447h1.344
			c0.247,0,0.447-0.201,0.447-0.447v-1.791h17.901v1.791c0,0.247,0.201,0.447,0.447,0.447h1.343c0.247,0,0.447-0.201,0.447-0.447
			V22.618C40.784,22.371,40.583,22.17,40.336,22.17z"/>
	</g>
</g>
<g id="Layer_5" display="none">
	<g display="inline">
		<g>
			<radialGradient id="SVGID_47_" cx="35.561" cy="21.5894" r="44.1863" gradientUnits="userSpaceOnUse">
				<stop  offset="0" style="stop-color:#54AF32"/>
				<stop  offset="0.3403" style="stop-color:#4DAC35"/>
				<stop  offset="0.6922" style="stop-color:#39A43D"/>
				<stop  offset="1" style="stop-color:#009945"/>
			</radialGradient>
			<path fill="url(#SVGID_47_)" d="M57.714,29.986c0-15.787-12.797-28.585-28.584-28.585c-15.788,0-28.585,12.798-28.585,28.585
				c0,5.149,1.367,9.978,3.752,14.149c8.36,14.661,20.253,35.495,23.798,41.705c0.211,0.372,0.606,0.602,1.036,0.601
				c0.428,0,0.821-0.23,1.035-0.604c3.544-6.208,15.437-27.041,23.805-41.702C56.346,39.963,57.714,35.135,57.714,29.986z"/>
			<radialGradient id="SVGID_48_" cx="35.561" cy="21.5894" r="44.1863" gradientUnits="userSpaceOnUse">
				<stop  offset="0" style="stop-color:#54AF32"/>
				<stop  offset="0.3403" style="stop-color:#4DAC35"/>
				<stop  offset="0.6922" style="stop-color:#39A43D"/>
				<stop  offset="1" style="stop-color:#009945"/>
			</radialGradient>
			<path fill="url(#SVGID_48_)" d="M57.714,29.986c0-15.787-12.797-28.585-28.584-28.585c-15.788,0-28.585,12.798-28.585,28.585
				c0,5.149,1.367,9.978,3.752,14.149c8.36,14.661,20.253,35.495,23.798,41.705c0.211,0.372,0.606,0.602,1.036,0.601
				c0.428,0,0.821-0.23,1.035-0.604c3.544-6.208,15.437-27.041,23.805-41.702C56.346,39.963,57.714,35.135,57.714,29.986z"/>
			<defs>
				<filter id="Adobe_OpacityMaskFilter_24_" filterUnits="userSpaceOnUse" x="0.799" y="33.805" width="56.661" height="52.633">
					<feFlood  style="flood-color:white;flood-opacity:1" result="back"/>
					<feBlend  in="SourceGraphic" in2="back" mode="normal"/>
				</filter>
			</defs>
			<mask maskUnits="userSpaceOnUse" x="0.799" y="33.805" width="56.661" height="52.633" id="SVGID_49_">
				<g filter="url(#Adobe_OpacityMaskFilter_24_)">
					<defs>
						<filter id="Adobe_OpacityMaskFilter_25_" filterUnits="userSpaceOnUse" x="0.799" y="33.805" width="56.661" height="52.633">
							<feFlood  style="flood-color:white;flood-opacity:1" result="back"/>
							<feBlend  in="SourceGraphic" in2="back" mode="normal"/>
						</filter>
					</defs>
					<mask maskUnits="userSpaceOnUse" x="0.799" y="33.805" width="56.661" height="52.633" id="SVGID_49_">
						<g filter="url(#Adobe_OpacityMaskFilter_25_)">
						</g>
					</mask>
					<linearGradient id="SVGID_50_" gradientUnits="userSpaceOnUse" x1="7.2881" y1="74.0137" x2="37.2417" y2="22.1325">
						<stop  offset="0" style="stop-color:#FFFFFF"/>
						<stop  offset="0.1102" style="stop-color:#CBCBCB"/>
						<stop  offset="0.239" style="stop-color:#969696"/>
						<stop  offset="0.3696" style="stop-color:#686868"/>
						<stop  offset="0.4992" style="stop-color:#434343"/>
						<stop  offset="0.6276" style="stop-color:#252525"/>
						<stop  offset="0.7546" style="stop-color:#111111"/>
						<stop  offset="0.8795" style="stop-color:#040404"/>
						<stop  offset="1" style="stop-color:#000000"/>
					</linearGradient>
					<path mask="url(#SVGID_49_)" fill="url(#SVGID_50_)" d="M57.459,33.805c-0.676,2.814-1.79,5.476-3.277,7.911
						c-8.945,14.659-24.927,42.005-25.053,42.147c-0.127-0.142-16.107-27.488-25.053-42.147c-1.489-2.435-2.603-5.097-3.278-7.911
						c0.5,3.717,1.716,7.208,3.498,10.333c7.618,13.357,23.67,41.478,23.798,41.699c0.211,0.373,0.605,0.602,1.035,0.602
						c0.429,0,0.824-0.229,1.035-0.602c0.125-0.222,16.178-28.342,23.797-41.699C55.744,41.013,56.96,37.522,57.459,33.805z"/>
				</g>
			</mask>
			<linearGradient id="SVGID_51_" gradientUnits="userSpaceOnUse" x1="7.2881" y1="74.0137" x2="37.2417" y2="22.1325">
				<stop  offset="0" style="stop-color:#098637"/>
				<stop  offset="0.2488" style="stop-color:#058E3D"/>
				<stop  offset="0.6307" style="stop-color:#019643"/>
				<stop  offset="1" style="stop-color:#009945"/>
			</linearGradient>
			<path fill="url(#SVGID_51_)" d="M57.459,33.805c-0.676,2.814-1.79,5.476-3.277,7.911c-8.945,14.659-24.927,42.005-25.053,42.147
				c-0.127-0.142-16.107-27.488-25.053-42.147c-1.489-2.435-2.603-5.097-3.278-7.911c0.5,3.717,1.716,7.208,3.498,10.333
				c7.618,13.357,23.67,41.478,23.798,41.699c0.211,0.373,0.605,0.602,1.035,0.602c0.429,0,0.824-0.229,1.035-0.602
				c0.125-0.222,16.178-28.342,23.797-41.699C55.744,41.013,56.96,37.522,57.459,33.805z"/>
			
				<linearGradient id="SVGID_52_" gradientUnits="userSpaceOnUse" x1="-8.8906" y1="-90.958" x2="-8.8906" y2="-43.6323" gradientTransform="matrix(-0.7071 -0.7071 0.7071 -0.7071 70.4268 -23.8851)">
				<stop  offset="0" style="stop-color:#54AF32"/>
				<stop  offset="0.3403" style="stop-color:#4DAC35"/>
				<stop  offset="0.6922" style="stop-color:#39A43D"/>
				<stop  offset="1" style="stop-color:#009945"/>
			</linearGradient>
			<path fill="url(#SVGID_52_)" d="M45.862,13.254c9.224,9.227,9.224,24.238,0,33.464c-9.228,9.225-24.239,9.225-33.464,0
				c-9.225-9.226-9.225-24.237,0-33.464C21.623,4.029,36.634,4.029,45.862,13.254z"/>
			<path fill="#009945" d="M44.809,14.303c8.649,8.647,8.649,22.718,0,31.366c-8.646,8.646-22.714,8.646-31.362,0
				c-8.647-8.648-8.647-22.718,0-31.366C22.095,5.656,36.165,5.656,44.809,14.303z"/>
			<defs>
				<filter id="Adobe_OpacityMaskFilter_26_" filterUnits="userSpaceOnUse" x="9.486" y="2.334" width="47.296" height="47.295">
					<feFlood  style="flood-color:white;flood-opacity:1" result="back"/>
					<feBlend  in="SourceGraphic" in2="back" mode="normal"/>
				</filter>
			</defs>
			<mask maskUnits="userSpaceOnUse" x="9.486" y="2.334" width="47.296" height="47.295" id="SVGID_53_">
				<g filter="url(#Adobe_OpacityMaskFilter_26_)">
					<defs>
						<filter id="Adobe_OpacityMaskFilter_27_" filterUnits="userSpaceOnUse" x="9.486" y="2.334" width="47.296" height="47.295">
							<feFlood  style="flood-color:white;flood-opacity:1" result="back"/>
							<feBlend  in="SourceGraphic" in2="back" mode="normal"/>
						</filter>
					</defs>
					<mask maskUnits="userSpaceOnUse" x="9.486" y="2.334" width="47.296" height="47.295" id="SVGID_53_">
						<g filter="url(#Adobe_OpacityMaskFilter_27_)">
						</g>
					</mask>
					<radialGradient id="SVGID_54_" cx="54.3892" cy="5.4736" r="43.7212" gradientUnits="userSpaceOnUse">
						<stop  offset="0" style="stop-color:#BFBFBF"/>
						<stop  offset="1" style="stop-color:#000000"/>
					</radialGradient>
					<path mask="url(#SVGID_53_)" fill="url(#SVGID_54_)" d="M56.782,29.614c0-15.066-12.214-27.279-27.28-27.279
						c-7.912,0-15.034,3.371-20.016,8.752c4.864-4.502,11.37-7.262,18.526-7.262c15.063,0,27.278,12.215,27.278,27.279
						c0,7.154-2.759,13.661-7.262,18.526C53.412,44.648,56.782,37.525,56.782,29.614z"/>
				</g>
			</mask>
			<radialGradient id="SVGID_55_" cx="54.3892" cy="5.4736" r="43.7212" gradientUnits="userSpaceOnUse">
				<stop  offset="0" style="stop-color:#7BBD6C"/>
				<stop  offset="1" style="stop-color:#7BBD6C"/>
			</radialGradient>
			<path fill="url(#SVGID_55_)" d="M56.782,29.614c0-15.066-12.214-27.279-27.28-27.279c-7.912,0-15.034,3.371-20.016,8.752
				c4.864-4.502,11.37-7.262,18.526-7.262c15.063,0,27.278,12.215,27.278,27.279c0,7.154-2.759,13.661-7.262,18.526
				C53.412,44.648,56.782,37.525,56.782,29.614z"/>
		</g>
		<g>
			<radialGradient id="SVGID_56_" cx="32.8589" cy="24.3018" r="28.1515" gradientUnits="userSpaceOnUse">
				<stop  offset="0" style="stop-color:#FFFFFF"/>
				<stop  offset="0.3287" style="stop-color:#FDFDFD"/>
				<stop  offset="0.5264" style="stop-color:#F6F6F6"/>
				<stop  offset="0.6894" style="stop-color:#E9E9E9"/>
				<stop  offset="0.8327" style="stop-color:#D8D8D8"/>
				<stop  offset="0.885" style="stop-color:#D0D0D0"/>
			</radialGradient>
			<path fill="url(#SVGID_56_)" d="M29.129,51.536c-11.883,0-21.548-9.668-21.548-21.55c0-11.881,9.665-21.548,21.548-21.548
				c11.882,0,21.55,9.667,21.55,21.548C50.679,41.868,41.011,51.536,29.129,51.536z"/>
			<defs>
				<filter id="Adobe_OpacityMaskFilter_28_" filterUnits="userSpaceOnUse" x="13.534" y="8.438" width="37.145" height="37.142">
					<feFlood  style="flood-color:white;flood-opacity:1" result="back"/>
					<feBlend  in="SourceGraphic" in2="back" mode="normal"/>
				</filter>
			</defs>
			<mask maskUnits="userSpaceOnUse" x="13.534" y="8.438" width="37.145" height="37.142" id="SVGID_57_">
				<g filter="url(#Adobe_OpacityMaskFilter_28_)">
					<defs>
						<filter id="Adobe_OpacityMaskFilter_29_" filterUnits="userSpaceOnUse" x="13.534" y="8.438" width="37.145" height="37.142">
							<feFlood  style="flood-color:white;flood-opacity:1" result="back"/>
							<feBlend  in="SourceGraphic" in2="back" mode="normal"/>
						</filter>
					</defs>
					<mask maskUnits="userSpaceOnUse" x="13.534" y="8.438" width="37.145" height="37.142" id="SVGID_57_">
						<g filter="url(#Adobe_OpacityMaskFilter_29_)">
						</g>
					</mask>
					<linearGradient id="SVGID_58_" gradientUnits="userSpaceOnUse" x1="28.7568" y1="30.3599" x2="44.3601" y2="14.7566">
						<stop  offset="0" style="stop-color:#000000"/>
						<stop  offset="1" style="stop-color:#FFFFFF"/>
					</linearGradient>
					<path mask="url(#SVGID_57_)" fill="url(#SVGID_58_)" d="M29.129,8.438c-6.13,0-11.668,2.576-15.595,6.699
						c3.868-3.685,9.097-5.955,14.849-5.955c11.884,0,21.551,9.667,21.551,21.55c0,5.752-2.271,10.979-5.955,14.848
						c4.121-3.927,6.7-9.465,6.7-15.594C50.679,18.104,41.011,8.438,29.129,8.438z"/>
				</g>
			</mask>
			<linearGradient id="SVGID_59_" gradientUnits="userSpaceOnUse" x1="28.7568" y1="30.3599" x2="44.3601" y2="14.7566">
				<stop  offset="0" style="stop-color:#FFFFFF"/>
				<stop  offset="1" style="stop-color:#D0D0D0"/>
			</linearGradient>
			<path fill="url(#SVGID_59_)" d="M29.129,8.438c-6.13,0-11.668,2.576-15.595,6.699c3.868-3.685,9.097-5.955,14.849-5.955
				c11.884,0,21.551,9.667,21.551,21.55c0,5.752-2.271,10.979-5.955,14.848c4.121-3.927,6.7-9.465,6.7-15.594
				C50.679,18.104,41.011,8.438,29.129,8.438z"/>
		</g>
		<path fill="#6D6D6D" d="M40.06,24.479c-0.188-0.227-0.455-0.366-0.746-0.389l-15.675-1.196l-0.612-3.202
			c-0.1-0.52-0.547-0.894-1.065-0.894h-2.934c-0.599,0-1.085,0.495-1.085,1.106c0,0.609,0.486,1.106,1.085,1.106h2.037l0.597,3.111
			c0.003,0.016,0.005,0.033,0.008,0.048l1.437,7.503c-0.356,0.197-0.687,0.461-0.957,0.784c-0.606,0.73-0.855,1.664-0.7,2.628
			c0.261,1.608,1.503,2.733,3.02,2.733h1.51h9.007c-0.92,0.005-1.67,0.754-1.67,1.679c0,0.927,0.752,1.678,1.679,1.678
			s1.68-0.751,1.68-1.678c0-0.925-0.749-1.674-1.669-1.679h1.62c0.598,0,1.086-0.494,1.086-1.106c0-0.611-0.488-1.105-1.086-1.105
			H24.468c-0.337,0-0.77-0.23-0.875-0.88c-0.053-0.329,0.017-0.602,0.213-0.837c0.219-0.261,0.524-0.384,0.662-0.384h14.112
			c0.56,0,1.03-0.435,1.081-1.004l0.652-7.207C40.342,25,40.251,24.705,40.06,24.479z M24.069,25.145l4.313,0.329l0.145,2.41
			l-3.963-0.154L24.069,25.145z M25.245,31.294l-0.469-2.449l3.819,0.148l0.138,2.301H25.245z M33.508,31.294h-3.688l-0.135-2.259
			l3.887,0.152L33.508,31.294z M33.606,28.082l-3.988-0.155l-0.142-2.37l4.197,0.321L33.606,28.082z M37.588,31.294h-2.993
			l0.063-2.064l3.109,0.12L37.588,31.294z M37.866,28.248l-3.175-0.123l0.066-2.165l3.291,0.252L37.866,28.248z M24.3,39.497
			c0,0.927,0.752,1.678,1.678,1.678c0.928,0,1.68-0.751,1.68-1.678c0-0.928-0.752-1.679-1.68-1.679
			C25.052,37.818,24.3,38.569,24.3,39.497z"/>
	</g>
</g>
<g id="Layer_6" display="none">
	<g display="inline">
		<g>
			<radialGradient id="SVGID_60_" cx="35.9604" cy="21.8608" r="44.1863" gradientUnits="userSpaceOnUse">
				<stop  offset="0" style="stop-color:#EB611D"/>
				<stop  offset="0.3015" style="stop-color:#EC641D"/>
				<stop  offset="0.6139" style="stop-color:#ED701C"/>
				<stop  offset="0.9302" style="stop-color:#F0821A"/>
				<stop  offset="1" style="stop-color:#F18619"/>
			</radialGradient>
			<path fill="url(#SVGID_60_)" d="M58.114,30.258c0-15.787-12.798-28.585-28.584-28.585c-15.786,0-28.584,12.798-28.584,28.585
				c0,5.149,1.368,9.978,3.752,14.15c8.36,14.66,20.25,35.492,23.796,41.704c0.212,0.37,0.606,0.601,1.034,0.601
				c0.428,0,0.824-0.229,1.035-0.601c3.545-6.208,15.438-27.044,23.808-41.704C56.746,40.235,58.114,35.407,58.114,30.258z"/>
			<radialGradient id="SVGID_61_" cx="35.9604" cy="21.8608" r="44.1863" gradientUnits="userSpaceOnUse">
				<stop  offset="0" style="stop-color:#EB611D"/>
				<stop  offset="0.3015" style="stop-color:#EC641D"/>
				<stop  offset="0.6139" style="stop-color:#ED701C"/>
				<stop  offset="0.9302" style="stop-color:#F0821A"/>
				<stop  offset="1" style="stop-color:#F18619"/>
			</radialGradient>
			<path fill="url(#SVGID_61_)" d="M58.114,30.258c0-15.787-12.798-28.585-28.584-28.585c-15.786,0-28.584,12.798-28.584,28.585
				c0,5.149,1.368,9.978,3.752,14.15c8.36,14.66,20.25,35.492,23.796,41.704c0.212,0.37,0.606,0.601,1.034,0.601
				c0.428,0,0.824-0.229,1.035-0.601c3.545-6.208,15.438-27.044,23.808-41.704C56.746,40.235,58.114,35.407,58.114,30.258z"/>
			<defs>
				<filter id="Adobe_OpacityMaskFilter_30_" filterUnits="userSpaceOnUse" x="1.199" y="34.077" width="56.661" height="52.635">
					<feFlood  style="flood-color:white;flood-opacity:1" result="back"/>
					<feBlend  in="SourceGraphic" in2="back" mode="normal"/>
				</filter>
			</defs>
			<mask maskUnits="userSpaceOnUse" x="1.199" y="34.077" width="56.661" height="52.635" id="SVGID_62_">
				<g filter="url(#Adobe_OpacityMaskFilter_30_)">
					<defs>
						<filter id="Adobe_OpacityMaskFilter_31_" filterUnits="userSpaceOnUse" x="1.199" y="34.077" width="56.661" height="52.635">
							<feFlood  style="flood-color:white;flood-opacity:1" result="back"/>
							<feBlend  in="SourceGraphic" in2="back" mode="normal"/>
						</filter>
					</defs>
					<mask maskUnits="userSpaceOnUse" x="1.199" y="34.077" width="56.661" height="52.635" id="SVGID_62_">
						<g filter="url(#Adobe_OpacityMaskFilter_31_)">
						</g>
					</mask>
					<linearGradient id="SVGID_63_" gradientUnits="userSpaceOnUse" x1="7.6904" y1="74.2842" x2="37.6431" y2="22.4047">
						<stop  offset="0" style="stop-color:#FFFFFF"/>
						<stop  offset="0.1102" style="stop-color:#CBCBCB"/>
						<stop  offset="0.239" style="stop-color:#969696"/>
						<stop  offset="0.3696" style="stop-color:#686868"/>
						<stop  offset="0.4992" style="stop-color:#434343"/>
						<stop  offset="0.6276" style="stop-color:#252525"/>
						<stop  offset="0.7546" style="stop-color:#111111"/>
						<stop  offset="0.8795" style="stop-color:#040404"/>
						<stop  offset="1" style="stop-color:#000000"/>
					</linearGradient>
					<path mask="url(#SVGID_62_)" fill="url(#SVGID_63_)" d="M54.583,41.988c-8.943,14.659-24.925,42.01-25.053,42.15
						c-0.127-0.141-16.11-27.491-25.052-42.15c-1.489-2.435-2.604-5.095-3.278-7.912c0.498,3.718,1.714,7.208,3.499,10.333
						c8.36,14.659,20.251,35.493,23.796,41.701c0.166,0.291,0.445,0.489,0.766,0.564c0.087,0.021,0.177,0.036,0.269,0.036l0,0h0.001
						c0.091,0,0.181-0.015,0.269-0.036c0.321-0.075,0.601-0.273,0.766-0.564C34.11,79.903,46,59.069,54.362,44.41
						c1.784-3.125,3-6.616,3.498-10.333C57.187,36.894,56.072,39.553,54.583,41.988z"/>
				</g>
			</mask>
			<linearGradient id="SVGID_64_" gradientUnits="userSpaceOnUse" x1="7.6904" y1="74.2842" x2="37.6431" y2="22.4047">
				<stop  offset="0" style="stop-color:#EC671D"/>
				<stop  offset="0.3279" style="stop-color:#EF781B"/>
				<stop  offset="0.6696" style="stop-color:#F0831A"/>
				<stop  offset="1" style="stop-color:#F18619"/>
			</linearGradient>
			<path fill="url(#SVGID_64_)" d="M54.583,41.988c-8.943,14.659-24.925,42.01-25.053,42.15c-0.127-0.141-16.11-27.491-25.052-42.15
				c-1.489-2.435-2.604-5.095-3.278-7.912c0.498,3.718,1.714,7.208,3.499,10.333c8.36,14.659,20.251,35.493,23.796,41.701
				c0.166,0.291,0.445,0.489,0.766,0.564c0.087,0.021,0.177,0.036,0.269,0.036l0,0h0.001c0.091,0,0.181-0.015,0.269-0.036
				c0.321-0.075,0.601-0.273,0.766-0.564C34.11,79.903,46,59.069,54.362,44.41c1.784-3.125,3-6.616,3.498-10.333
				C57.187,36.894,56.072,39.553,54.583,41.988z"/>
			
				<linearGradient id="SVGID_65_" gradientUnits="userSpaceOnUse" x1="-9.3662" y1="-90.8672" x2="-9.3662" y2="-43.542" gradientTransform="matrix(-0.7071 -0.7071 0.7071 -0.7071 70.4268 -23.8851)">
				<stop  offset="0" style="stop-color:#F59B25"/>
				<stop  offset="0.0121" style="stop-color:#F59A25"/>
				<stop  offset="0.2642" style="stop-color:#F08221"/>
				<stop  offset="0.5149" style="stop-color:#EE701F"/>
				<stop  offset="0.7618" style="stop-color:#EC641E"/>
				<stop  offset="1" style="stop-color:#EB611D"/>
			</linearGradient>
			<path fill="url(#SVGID_65_)" d="M46.261,13.526c9.228,9.227,9.228,24.237,0,33.464c-9.226,9.225-24.238,9.225-33.462,0
				c-9.23-9.228-9.23-24.238,0-33.464C22.023,4.3,37.036,4.3,46.261,13.526z"/>
			<path fill="#F18619" d="M45.21,14.573c8.65,8.649,8.65,22.72,0,31.367c-8.646,8.647-22.717,8.647-31.365,0
				c-8.649-8.647-8.649-22.718,0-31.367C22.494,5.927,36.564,5.927,45.21,14.573z"/>
			<defs>
				<filter id="Adobe_OpacityMaskFilter_32_" filterUnits="userSpaceOnUse" x="9.884" y="2.605" width="47.298" height="47.298">
					<feFlood  style="flood-color:white;flood-opacity:1" result="back"/>
					<feBlend  in="SourceGraphic" in2="back" mode="normal"/>
				</filter>
			</defs>
			<mask maskUnits="userSpaceOnUse" x="9.884" y="2.605" width="47.298" height="47.298" id="SVGID_66_">
				<g filter="url(#Adobe_OpacityMaskFilter_32_)">
					<defs>
						<filter id="Adobe_OpacityMaskFilter_33_" filterUnits="userSpaceOnUse" x="9.884" y="2.605" width="47.298" height="47.298">
							<feFlood  style="flood-color:white;flood-opacity:1" result="back"/>
							<feBlend  in="SourceGraphic" in2="back" mode="normal"/>
						</filter>
					</defs>
					<mask maskUnits="userSpaceOnUse" x="9.884" y="2.605" width="47.298" height="47.298" id="SVGID_66_">
						<g filter="url(#Adobe_OpacityMaskFilter_33_)">
						</g>
					</mask>
					<radialGradient id="SVGID_67_" cx="54.7886" cy="5.7446" r="43.7237" gradientUnits="userSpaceOnUse">
						<stop  offset="0" style="stop-color:#BFBFBF"/>
						<stop  offset="1" style="stop-color:#000000"/>
					</radialGradient>
					<path mask="url(#SVGID_66_)" fill="url(#SVGID_67_)" d="M57.182,29.885c0-15.067-12.215-27.28-27.28-27.28
						c-7.913,0-15.037,3.372-20.019,8.752c4.864-4.503,11.374-7.262,18.527-7.262c15.066,0,27.279,12.215,27.279,27.281
						c0,7.153-2.758,13.66-7.262,18.527C53.81,44.921,57.182,37.797,57.182,29.885z"/>
				</g>
			</mask>
			<radialGradient id="SVGID_68_" cx="54.7886" cy="5.7446" r="43.7237" gradientUnits="userSpaceOnUse">
				<stop  offset="0" style="stop-color:#F9F094"/>
				<stop  offset="1" style="stop-color:#F9F094"/>
			</radialGradient>
			<path fill="url(#SVGID_68_)" d="M57.182,29.885c0-15.067-12.215-27.28-27.28-27.28c-7.913,0-15.037,3.372-20.019,8.752
				c4.864-4.503,11.374-7.262,18.527-7.262c15.066,0,27.279,12.215,27.279,27.281c0,7.153-2.758,13.66-7.262,18.527
				C53.81,44.921,57.182,37.797,57.182,29.885z"/>
		</g>
		<g>
			<radialGradient id="SVGID_69_" cx="33.2573" cy="24.5732" r="28.1526" gradientUnits="userSpaceOnUse">
				<stop  offset="0" style="stop-color:#FFFFFF"/>
				<stop  offset="0.3287" style="stop-color:#FDFDFD"/>
				<stop  offset="0.5264" style="stop-color:#F6F6F6"/>
				<stop  offset="0.6894" style="stop-color:#E9E9E9"/>
				<stop  offset="0.8327" style="stop-color:#D8D8D8"/>
				<stop  offset="0.885" style="stop-color:#D0D0D0"/>
			</radialGradient>
			<path fill="url(#SVGID_69_)" d="M29.529,51.809c-11.882,0-21.549-9.668-21.549-21.551c0-11.881,9.667-21.548,21.549-21.548
				c11.883,0,21.549,9.667,21.549,21.548C51.079,42.14,41.413,51.809,29.529,51.809z"/>
			<defs>
				<filter id="Adobe_OpacityMaskFilter_34_" filterUnits="userSpaceOnUse" x="13.936" y="8.709" width="37.143" height="37.143">
					<feFlood  style="flood-color:white;flood-opacity:1" result="back"/>
					<feBlend  in="SourceGraphic" in2="back" mode="normal"/>
				</filter>
			</defs>
			<mask maskUnits="userSpaceOnUse" x="13.936" y="8.709" width="37.143" height="37.143" id="SVGID_70_">
				<g filter="url(#Adobe_OpacityMaskFilter_34_)">
					<defs>
						<filter id="Adobe_OpacityMaskFilter_35_" filterUnits="userSpaceOnUse" x="13.936" y="8.709" width="37.143" height="37.143">
							<feFlood  style="flood-color:white;flood-opacity:1" result="back"/>
							<feBlend  in="SourceGraphic" in2="back" mode="normal"/>
						</filter>
					</defs>
					<mask maskUnits="userSpaceOnUse" x="13.936" y="8.709" width="37.143" height="37.143" id="SVGID_70_">
						<g filter="url(#Adobe_OpacityMaskFilter_35_)">
						</g>
					</mask>
					<linearGradient id="SVGID_71_" gradientUnits="userSpaceOnUse" x1="29.1577" y1="30.6309" x2="44.7602" y2="15.0283">
						<stop  offset="0" style="stop-color:#000000"/>
						<stop  offset="1" style="stop-color:#FFFFFF"/>
					</linearGradient>
					<path mask="url(#SVGID_70_)" fill="url(#SVGID_71_)" d="M29.529,8.709c-6.132,0-11.667,2.575-15.593,6.699
						c3.867-3.686,9.096-5.955,14.849-5.955c11.882,0,21.547,9.667,21.547,21.55c0,5.752-2.267,10.979-5.952,14.848
						c4.121-3.928,6.699-9.463,6.699-15.595C51.079,18.377,41.413,8.709,29.529,8.709z"/>
				</g>
			</mask>
			<linearGradient id="SVGID_72_" gradientUnits="userSpaceOnUse" x1="29.1577" y1="30.6309" x2="44.7602" y2="15.0283">
				<stop  offset="0" style="stop-color:#FFFFFF"/>
				<stop  offset="1" style="stop-color:#D0D0D0"/>
			</linearGradient>
			<path fill="url(#SVGID_72_)" d="M29.529,8.709c-6.132,0-11.667,2.575-15.593,6.699c3.867-3.686,9.096-5.955,14.849-5.955
				c11.882,0,21.547,9.667,21.547,21.55c0,5.752-2.267,10.979-5.952,14.848c4.121-3.928,6.699-9.463,6.699-15.595
				C51.079,18.377,41.413,8.709,29.529,8.709z"/>
		</g>
		<path display="none" fill="#6D6D6D" d="M40.719,23.61l-1.68-0.172v-2.29h-0.559c-2.414,0-4.686,0.119-6.399,0.332
			c-1.262,0.159-2.075,0.335-2.551,0.581c-0.479-0.246-1.292-0.422-2.554-0.581c-1.712-0.213-3.985-0.332-6.398-0.332H20.02v2.29
			l-1.678,0.172v15.758l9.634-0.994c0.354,0.337,0.919,0.555,1.555,0.555c0.636,0,1.199-0.218,1.552-0.555l9.637,0.994V23.61z
			 M30.089,23.027c0.676-0.323,3.553-0.725,7.833-0.758v12.31c-2.204,0.016-4.261,0.131-5.841,0.329
			c-0.86,0.106-1.514,0.225-1.993,0.365V23.027z M21.137,22.269c4.28,0.033,7.156,0.435,7.832,0.758v12.246
			c-0.479-0.14-1.131-0.259-1.992-0.365c-1.58-0.198-3.636-0.313-5.84-0.329V22.269z M20.579,35.695c3.234,0,5.73,0.209,7.167,0.453
			l-7.167,0.74V35.695z M38.481,36.888l-7.168-0.74c1.436-0.243,3.933-0.453,7.168-0.453V36.888z"/>
		<path fill="#6D6D6D" d="M18.856,31.237h19.688v-2.24c0-1.234-1.001-2.236-2.236-2.236H20.646c-1.236,0-2.238,1.002-2.238,2.236
			v1.791C18.408,31.036,18.609,31.237,18.856,31.237z M35.788,26.121c2.142-1.235,2.757-4.175,2.757-4.175s-2.853-0.935-4.993,0.302
			c-2.141,1.233-2.757,4.173-2.757,4.173S33.649,27.359,35.788,26.121z M40.336,21.17h-1.343c-0.246,0-0.447,0.201-0.447,0.448
			v10.739H18.854c-0.248,0-0.448,0.201-0.448,0.449v1.789h0.001v1.79c0,0.247,0.201,0.447,0.447,0.447h1.344
			c0.247,0,0.447-0.2,0.447-0.447v-1.79h17.901v1.79c0,0.247,0.201,0.447,0.447,0.447h1.343c0.247,0,0.447-0.2,0.447-0.447V21.618
			C40.784,21.371,40.583,21.17,40.336,21.17z"/>
	</g>
</g>
<g id="Layer_7" display="none">
	<g display="inline">
		<g>
			<radialGradient id="SVGID_73_" cx="35.4272" cy="21.8755" r="44.1863" gradientUnits="userSpaceOnUse">
				<stop  offset="0" style="stop-color:#E94F1E"/>
				<stop  offset="0.3352" style="stop-color:#E9531C"/>
				<stop  offset="0.6819" style="stop-color:#E85F17"/>
				<stop  offset="1" style="stop-color:#E66F0B"/>
			</radialGradient>
			<path fill="url(#SVGID_73_)" d="M57.581,30.272c0-15.787-12.798-28.584-28.586-28.584c-15.786,0-28.583,12.798-28.583,28.584
				c0,5.149,1.368,9.978,3.752,14.152c8.36,14.659,20.251,35.492,23.796,41.702c0.212,0.371,0.607,0.601,1.035,0.601
				c0.427,0,0.823-0.228,1.035-0.601c3.545-6.208,15.439-27.042,23.808-41.702C56.21,40.25,57.581,35.421,57.581,30.272z"/>
			<path fill="#EDE64E" d="M57.581,30.272c0-15.787-12.798-28.584-28.586-28.584c-15.786,0-28.583,12.798-28.583,28.584
				c0,5.149,1.368,9.978,3.752,14.152c8.36,14.659,20.251,35.492,23.796,41.702c0.212,0.371,0.607,0.601,1.035,0.601
				c0.427,0,0.823-0.228,1.035-0.601c3.545-6.208,15.439-27.042,23.808-41.702C56.21,40.25,57.581,35.421,57.581,30.272z"/>
			<defs>
				<filter id="Adobe_OpacityMaskFilter_36_" filterUnits="userSpaceOnUse" x="0.665" y="34.092" width="56.662" height="52.635">
					<feFlood  style="flood-color:white;flood-opacity:1" result="back"/>
					<feBlend  in="SourceGraphic" in2="back" mode="normal"/>
				</filter>
			</defs>
			<mask maskUnits="userSpaceOnUse" x="0.665" y="34.092" width="56.662" height="52.635" id="SVGID_74_">
				<g filter="url(#Adobe_OpacityMaskFilter_36_)">
					<defs>
						<filter id="Adobe_OpacityMaskFilter_37_" filterUnits="userSpaceOnUse" x="0.665" y="34.092" width="56.662" height="52.635">
							<feFlood  style="flood-color:white;flood-opacity:1" result="back"/>
							<feBlend  in="SourceGraphic" in2="back" mode="normal"/>
						</filter>
					</defs>
					<mask maskUnits="userSpaceOnUse" x="0.665" y="34.092" width="56.662" height="52.635" id="SVGID_74_">
						<g filter="url(#Adobe_OpacityMaskFilter_37_)">
						</g>
					</mask>
					<linearGradient id="SVGID_75_" gradientUnits="userSpaceOnUse" x1="7.1548" y1="74.3018" x2="37.1093" y2="22.4191">
						<stop  offset="0" style="stop-color:#FFFFFF"/>
						<stop  offset="0.1102" style="stop-color:#CBCBCB"/>
						<stop  offset="0.239" style="stop-color:#969696"/>
						<stop  offset="0.3696" style="stop-color:#686868"/>
						<stop  offset="0.4992" style="stop-color:#434343"/>
						<stop  offset="0.6276" style="stop-color:#252525"/>
						<stop  offset="0.7546" style="stop-color:#111111"/>
						<stop  offset="0.8795" style="stop-color:#040404"/>
						<stop  offset="1" style="stop-color:#000000"/>
					</linearGradient>
					<path mask="url(#SVGID_74_)" fill="url(#SVGID_75_)" d="M54.049,42.003c-8.944,14.66-24.926,42.008-25.054,42.15
						c-0.127-0.142-16.11-27.49-25.053-42.15c-1.488-2.437-2.604-5.096-3.277-7.912c0.499,3.718,1.715,7.207,3.499,10.333
						c8.36,14.659,20.252,35.494,23.796,41.702c0.213,0.371,0.608,0.603,1.035,0.601h0h0c0.428,0.002,0.823-0.229,1.036-0.601
						c3.544-6.208,15.436-27.043,23.797-41.702c1.783-3.125,3-6.615,3.498-10.333C56.653,36.907,55.538,39.567,54.049,42.003z"/>
				</g>
			</mask>
			<path fill="#D8BF07" d="M54.049,42.003c-8.944,14.66-24.926,42.008-25.054,42.15c-0.127-0.142-16.11-27.49-25.053-42.15
				c-1.488-2.437-2.604-5.096-3.277-7.912c0.499,3.718,1.715,7.207,3.499,10.333c8.36,14.659,20.252,35.494,23.796,41.702
				c0.213,0.371,0.608,0.603,1.035,0.601h0h0c0.428,0.002,0.823-0.229,1.036-0.601c3.544-6.208,15.436-27.043,23.797-41.702
				c1.783-3.125,3-6.615,3.498-10.333C56.653,36.907,55.538,39.567,54.049,42.003z"/>
			<path fill="#FFED00" d="M45.726,13.54c9.228,9.226,9.228,24.238,0,33.463c-9.226,9.229-24.238,9.229-33.463,0
				c-9.227-9.225-9.227-24.237,0-33.463C21.488,4.314,36.501,4.314,45.726,13.54z"/>
			<path fill="#F3F1B8" d="M44.677,14.589c8.648,8.649,8.648,22.719,0,31.366c-8.647,8.647-22.718,8.647-31.366,0
				c-8.646-8.647-8.646-22.717,0-31.366C21.959,5.941,36.031,5.941,44.677,14.589z"/>
			<defs>
				<filter id="Adobe_OpacityMaskFilter_38_" filterUnits="userSpaceOnUse" x="9.35" y="2.62" width="47.297" height="47.296">
					<feFlood  style="flood-color:white;flood-opacity:1" result="back"/>
					<feBlend  in="SourceGraphic" in2="back" mode="normal"/>
				</filter>
			</defs>
			<mask maskUnits="userSpaceOnUse" x="9.35" y="2.62" width="47.297" height="47.296" id="SVGID_76_">
				<g filter="url(#Adobe_OpacityMaskFilter_38_)">
					<defs>
						<filter id="Adobe_OpacityMaskFilter_39_" filterUnits="userSpaceOnUse" x="9.35" y="2.62" width="47.297" height="47.296">
							<feFlood  style="flood-color:white;flood-opacity:1" result="back"/>
							<feBlend  in="SourceGraphic" in2="back" mode="normal"/>
						</filter>
					</defs>
					<mask maskUnits="userSpaceOnUse" x="9.35" y="2.62" width="47.297" height="47.296" id="SVGID_76_">
						<g filter="url(#Adobe_OpacityMaskFilter_39_)">
						</g>
					</mask>
					<radialGradient id="SVGID_77_" cx="54.2544" cy="5.7583" r="43.7227" gradientUnits="userSpaceOnUse">
						<stop  offset="0" style="stop-color:#BFBFBF"/>
						<stop  offset="1" style="stop-color:#000000"/>
					</radialGradient>
					<path mask="url(#SVGID_76_)" fill="url(#SVGID_77_)" d="M56.647,29.899c0-15.066-12.213-27.279-27.28-27.279
						c-7.913,0-15.035,3.371-20.018,8.753C14.215,6.869,20.723,4.11,27.877,4.11c15.066,0,27.28,12.214,27.28,27.28
						c0,7.154-2.758,13.663-7.262,18.525C53.275,44.935,56.647,37.813,56.647,29.899z"/>
				</g>
			</mask>
			<radialGradient id="SVGID_78_" cx="54.2544" cy="5.7583" r="43.7227" gradientUnits="userSpaceOnUse">
				<stop  offset="0" style="stop-color:#FAC07E"/>
				<stop  offset="1" style="stop-color:#FAC07E"/>
			</radialGradient>
			<path fill="url(#SVGID_78_)" d="M56.647,29.899c0-15.066-12.213-27.279-27.28-27.279c-7.913,0-15.035,3.371-20.018,8.753
				C14.215,6.869,20.723,4.11,27.877,4.11c15.066,0,27.28,12.214,27.28,27.28c0,7.154-2.758,13.663-7.262,18.525
				C53.275,44.935,56.647,37.813,56.647,29.899z"/>
		</g>
		<g>
			<radialGradient id="SVGID_79_" cx="32.7231" cy="24.5864" r="28.1534" gradientUnits="userSpaceOnUse">
				<stop  offset="0" style="stop-color:#FFFFFF"/>
				<stop  offset="0.3287" style="stop-color:#FDFDFD"/>
				<stop  offset="0.5264" style="stop-color:#F6F6F6"/>
				<stop  offset="0.6894" style="stop-color:#E9E9E9"/>
				<stop  offset="0.8327" style="stop-color:#D8D8D8"/>
				<stop  offset="0.885" style="stop-color:#D0D0D0"/>
			</radialGradient>
			<path fill="url(#SVGID_79_)" d="M28.995,51.822c-11.882,0-21.55-9.666-21.55-21.55c0-11.882,9.667-21.55,21.55-21.55
				c11.884,0,21.551,9.668,21.551,21.55C50.545,42.156,40.878,51.822,28.995,51.822z"/>
			<defs>
				<filter id="Adobe_OpacityMaskFilter_40_" filterUnits="userSpaceOnUse" x="13.4" y="8.722" width="37.146" height="37.146">
					<feFlood  style="flood-color:white;flood-opacity:1" result="back"/>
					<feBlend  in="SourceGraphic" in2="back" mode="normal"/>
				</filter>
			</defs>
			<mask maskUnits="userSpaceOnUse" x="13.4" y="8.722" width="37.146" height="37.146" id="SVGID_80_">
				<g filter="url(#Adobe_OpacityMaskFilter_40_)">
					<defs>
						<filter id="Adobe_OpacityMaskFilter_41_" filterUnits="userSpaceOnUse" x="13.4" y="8.722" width="37.146" height="37.146">
							<feFlood  style="flood-color:white;flood-opacity:1" result="back"/>
							<feBlend  in="SourceGraphic" in2="back" mode="normal"/>
						</filter>
					</defs>
					<mask maskUnits="userSpaceOnUse" x="13.4" y="8.722" width="37.146" height="37.146" id="SVGID_80_">
						<g filter="url(#Adobe_OpacityMaskFilter_41_)">
						</g>
					</mask>
					<linearGradient id="SVGID_81_" gradientUnits="userSpaceOnUse" x1="28.6221" y1="30.6465" x2="44.2268" y2="15.0417">
						<stop  offset="0" style="stop-color:#000000"/>
						<stop  offset="1" style="stop-color:#FFFFFF"/>
					</linearGradient>
					<path mask="url(#SVGID_80_)" fill="url(#SVGID_81_)" d="M28.995,8.722c-6.13,0-11.667,2.577-15.595,6.702
						c3.868-3.686,9.097-5.957,14.849-5.957c11.884,0,21.55,9.667,21.55,21.549c0,5.752-2.27,10.982-5.955,14.851
						c4.123-3.929,6.701-9.464,6.701-15.596C50.545,18.39,40.878,8.722,28.995,8.722z"/>
				</g>
			</mask>
			<linearGradient id="SVGID_82_" gradientUnits="userSpaceOnUse" x1="28.6221" y1="30.6465" x2="44.2268" y2="15.0417">
				<stop  offset="0" style="stop-color:#FFFFFF"/>
				<stop  offset="1" style="stop-color:#D0D0D0"/>
			</linearGradient>
			<path fill="url(#SVGID_82_)" d="M28.995,8.722c-6.13,0-11.667,2.577-15.595,6.702c3.868-3.686,9.097-5.957,14.849-5.957
				c11.884,0,21.55,9.667,21.55,21.549c0,5.752-2.27,10.982-5.955,14.851c4.123-3.929,6.701-9.464,6.701-15.596
				C50.545,18.39,40.878,8.722,28.995,8.722z"/>
		</g>
		<path fill="#6D6D6D" d="M30.853,41.207c-0.039-0.331-0.164-0.646-0.191-1.179c-0.035-0.751-0.063-1.02-0.125-1.92
			c0.64-0.624,1.57-1.911,2.104-2.762c0.136-0.219,0.266-0.445,0.393-0.677c0.094,0.051,0.192,0.097,0.296,0.129
			c0.597,0.183,1.235-0.012,1.779-0.467c0.4,0.31,0.858,0.485,1.349,0.485c1.562,0,2.83-1.79,2.83-3.995
			c0-2.206-1.269-3.995-2.83-3.995c-0.049,0-0.093-0.037-0.114-0.098c-0.021-0.061-0.019-0.132,0.011-0.189
			c0.226-0.438,0.359-0.979,0.359-1.563c0-1.476-0.849-2.674-1.895-2.674c-0.247,0-0.483,0.069-0.699,0.193
			c-0.069,0.037-0.148,0.033-0.215-0.019c-0.065-0.048-0.111-0.137-0.129-0.24c-0.158-1.008-0.794-1.758-1.556-1.758
			c-0.087,0-0.171,0.01-0.255,0.03c-0.007,0.002-0.012-0.001-0.019-0.007c-0.005-0.006-0.007-0.015-0.007-0.023
			c0-1.64-0.94-2.963-2.1-2.963s-2.099,1.323-2.099,2.963c0,0.109-0.039,0.213-0.104,0.275s-0.147,0.072-0.219,0.03
			c-0.333-0.196-0.699-0.305-1.083-0.305c-1.563,0-2.831,1.786-2.831,3.994c0,0.417,0.046,0.821,0.132,1.198
			c0.013,0.06,0.006,0.125-0.02,0.176c-0.026,0.051-0.067,0.081-0.112,0.081c-1.16,0-2.1,1.325-2.1,2.962
			c0,0.367,0.048,0.718,0.135,1.045c0.049,0.179-0.011,0.385-0.139,0.458c-0.57,0.341-0.971,1.139-0.971,2.067
			c0,1.244,0.714,2.248,1.594,2.248c0.211,0,0.412-0.058,0.595-0.163c0.127-0.072,0.271,0.009,0.327,0.183
			c0.333,1.02,1.063,1.728,1.91,1.728c0.756,0,1.418-0.567,1.788-1.413c0.343,0.457,0.786,1.015,1.152,1.237
			c0.402,0.243,0.631,0.405,0.765,0.536c0,0.436,0.004,0.864-0.013,1.261c-0.043,0.974-0.082,1.424-0.157,2.32
			c-0.063,0.751-0.225,0.942-0.255,1.54c-0.016,0.322-0.217,0.633-0.386,0.841c-0.042,0.052-0.041,0.116,0.006,0.167
			c0.046,0.052,0.129,0.083,0.219,0.083H31.2c0.081,0,0.155-0.025,0.204-0.069c0.048-0.043,0.063-0.099,0.039-0.15
			C31.202,42.279,30.888,41.515,30.853,41.207z M28.59,35.407c-0.001,0.018-0.001,0.034-0.002,0.05
			c-0.104-0.055-0.217-0.104-0.339-0.138c-0.483-0.134-0.801-0.439-1.084-0.764c0.179,0.098,0.372,0.153,0.575,0.153
			c0.348,0,0.667-0.162,0.929-0.428L28.59,35.407z M30.251,34.169c0.35,0.273,0.751,0.435,1.182,0.435
			c0.309,0,0.605-0.084,0.877-0.233c-0.219,0.304-0.452,0.593-0.68,0.866c-0.533,0.639-0.912,1.057-1.231,1.286
			C30.318,35.698,30.248,34.946,30.251,34.169z"/>
	</g>
</g>
<g id="Layer_8">
	<g>
		<g>
			<radialGradient id="SVGID_83_" cx="35.4272" cy="21.6006" r="44.1852" gradientUnits="userSpaceOnUse">
				<stop  offset="0" style="stop-color:#A7559C"/>
				<stop  offset="0.3091" style="stop-color:#AA549B"/>
				<stop  offset="0.6292" style="stop-color:#B35199"/>
				<stop  offset="0.9534" style="stop-color:#C14C96"/>
				<stop  offset="1" style="stop-color:#C34B95"/>
			</radialGradient>
			<path fill="url(#SVGID_83_)" d="M57.58,29.998c0-15.787-12.797-28.584-28.584-28.584C13.21,1.414,0.413,14.21,0.413,29.998
				c0,5.148,1.368,9.978,3.752,14.15c8.36,14.659,20.251,35.491,23.796,41.703c0.211,0.371,0.607,0.6,1.034,0.6
				c0.428,0,0.824-0.228,1.036-0.599c3.545-6.209,15.438-27.045,23.807-41.704C56.21,39.975,57.58,35.146,57.58,29.998z"/>
			<radialGradient id="SVGID_84_" cx="35.4272" cy="21.6006" r="44.1852" gradientUnits="userSpaceOnUse">
				<stop  offset="0" style="stop-color:#A7559C"/>
				<stop  offset="0.3091" style="stop-color:#AA549B"/>
				<stop  offset="0.6292" style="stop-color:#B35199"/>
				<stop  offset="0.9534" style="stop-color:#C14C96"/>
				<stop  offset="1" style="stop-color:#C34B95"/>
			</radialGradient>
			<path fill="url(#SVGID_84_)" d="M57.58,29.998c0-15.787-12.797-28.584-28.584-28.584C13.21,1.414,0.413,14.21,0.413,29.998
				c0,5.148,1.368,9.978,3.752,14.15c8.36,14.659,20.251,35.491,23.796,41.703c0.211,0.371,0.607,0.6,1.034,0.6
				c0.428,0,0.824-0.228,1.036-0.599c3.545-6.209,15.438-27.045,23.807-41.704C56.21,39.975,57.58,35.146,57.58,29.998z"/>
			<defs>
				<filter id="Adobe_OpacityMaskFilter_42_" filterUnits="userSpaceOnUse" x="0.666" y="33.815" width="56.662" height="52.637">
					<feFlood  style="flood-color:white;flood-opacity:1" result="back"/>
					<feBlend  in="SourceGraphic" in2="back" mode="normal"/>
				</filter>
			</defs>
			<mask maskUnits="userSpaceOnUse" x="0.666" y="33.815" width="56.662" height="52.637" id="SVGID_85_">
				<g filter="url(#Adobe_OpacityMaskFilter_42_)">
					<defs>
						<filter id="Adobe_OpacityMaskFilter_43_" filterUnits="userSpaceOnUse" x="0.666" y="33.815" width="56.662" height="52.637">
							<feFlood  style="flood-color:white;flood-opacity:1" result="back"/>
							<feBlend  in="SourceGraphic" in2="back" mode="normal"/>
						</filter>
					</defs>
					<mask maskUnits="userSpaceOnUse" x="0.666" y="33.815" width="56.662" height="52.637" id="SVGID_85_">
						<g filter="url(#Adobe_OpacityMaskFilter_43_)">
						</g>
					</mask>
					<linearGradient id="SVGID_86_" gradientUnits="userSpaceOnUse" x1="7.1548" y1="74.0264" x2="37.1101" y2="22.1422">
						<stop  offset="0" style="stop-color:#FFFFFF"/>
						<stop  offset="0.1102" style="stop-color:#CBCBCB"/>
						<stop  offset="0.239" style="stop-color:#969696"/>
						<stop  offset="0.3696" style="stop-color:#686868"/>
						<stop  offset="0.4992" style="stop-color:#434343"/>
						<stop  offset="0.6276" style="stop-color:#252525"/>
						<stop  offset="0.7546" style="stop-color:#111111"/>
						<stop  offset="0.8795" style="stop-color:#040404"/>
						<stop  offset="1" style="stop-color:#000000"/>
					</linearGradient>
					<path mask="url(#SVGID_85_)" fill="url(#SVGID_86_)" d="M54.05,41.727c-8.944,14.661-24.926,42.009-25.054,42.151
						c-0.126-0.142-16.109-27.49-25.053-42.151c-1.489-2.434-2.604-5.096-3.277-7.912c0.499,3.719,1.714,7.211,3.498,10.334
						c8.361,14.659,20.252,35.494,23.797,41.702c0.212,0.372,0.607,0.602,1.035,0.602h0h0c0.428,0,0.823-0.229,1.036-0.602
						c3.545-6.208,15.436-27.043,23.797-41.702c1.783-3.123,2.999-6.615,3.498-10.334C56.654,36.631,55.539,39.293,54.05,41.727z"/>
				</g>
			</mask>
			<linearGradient id="SVGID_87_" gradientUnits="userSpaceOnUse" x1="7.1548" y1="74.0264" x2="37.1101" y2="22.1422">
				<stop  offset="0" style="stop-color:#DA1683"/>
				<stop  offset="0.0466" style="stop-color:#D81E84"/>
				<stop  offset="0.3708" style="stop-color:#CD3A8D"/>
				<stop  offset="0.6909" style="stop-color:#C64793"/>
				<stop  offset="1" style="stop-color:#C34B95"/>
			</linearGradient>
			<path fill="url(#SVGID_87_)" d="M54.05,41.727c-8.944,14.661-24.926,42.009-25.054,42.151
				c-0.126-0.142-16.109-27.49-25.053-42.151c-1.489-2.434-2.604-5.096-3.277-7.912c0.499,3.719,1.714,7.211,3.498,10.334
				c8.361,14.659,20.252,35.494,23.797,41.702c0.212,0.372,0.607,0.602,1.035,0.602h0h0c0.428,0,0.823-0.229,1.036-0.602
				c3.545-6.208,15.436-27.043,23.797-41.702c1.783-3.123,2.999-6.615,3.498-10.334C56.654,36.631,55.539,39.293,54.05,41.727z"/>
			
				<linearGradient id="SVGID_88_" gradientUnits="userSpaceOnUse" x1="-8.8032" y1="-91.061" x2="-8.8032" y2="-43.7363" gradientTransform="matrix(-0.7071 -0.7071 0.7071 -0.7071 70.4268 -23.8851)">
				<stop  offset="0" style="stop-color:#C277B0"/>
				<stop  offset="0.2498" style="stop-color:#C374AD"/>
				<stop  offset="0.5086" style="stop-color:#C569A7"/>
				<stop  offset="0.7706" style="stop-color:#C9569B"/>
				<stop  offset="1" style="stop-color:#CC3B8E"/>
			</linearGradient>
			<path fill="url(#SVGID_88_)" d="M45.726,13.265c9.228,9.227,9.228,24.239,0,33.464c-9.225,9.227-24.237,9.227-33.462,0
				c-9.227-9.226-9.227-24.238,0-33.464C21.489,4.039,36.501,4.039,45.726,13.265z"/>
			<path fill="#C34B95" d="M44.678,14.315c8.647,8.646,8.647,22.718,0,31.364c-8.647,8.65-22.719,8.65-31.366,0
				c-8.647-8.646-8.647-22.717,0-31.364C21.959,5.667,36.032,5.667,44.678,14.315z"/>
			<defs>
				<filter id="Adobe_OpacityMaskFilter_44_" filterUnits="userSpaceOnUse" x="9.351" y="2.344" width="47.297" height="47.3">
					<feFlood  style="flood-color:white;flood-opacity:1" result="back"/>
					<feBlend  in="SourceGraphic" in2="back" mode="normal"/>
				</filter>
			</defs>
			<mask maskUnits="userSpaceOnUse" x="9.351" y="2.344" width="47.297" height="47.3" id="SVGID_89_">
				<g filter="url(#Adobe_OpacityMaskFilter_44_)">
					<defs>
						<filter id="Adobe_OpacityMaskFilter_45_" filterUnits="userSpaceOnUse" x="9.351" y="2.344" width="47.297" height="47.3">
							<feFlood  style="flood-color:white;flood-opacity:1" result="back"/>
							<feBlend  in="SourceGraphic" in2="back" mode="normal"/>
						</filter>
					</defs>
					<mask maskUnits="userSpaceOnUse" x="9.351" y="2.344" width="47.297" height="47.3" id="SVGID_89_">
						<g filter="url(#Adobe_OpacityMaskFilter_45_)">
						</g>
					</mask>
					<radialGradient id="SVGID_90_" cx="54.2554" cy="5.4829" r="43.7256" gradientUnits="userSpaceOnUse">
						<stop  offset="0" style="stop-color:#BFBFBF"/>
						<stop  offset="1" style="stop-color:#000000"/>
					</radialGradient>
					<path mask="url(#SVGID_89_)" fill="url(#SVGID_90_)" d="M56.648,29.625c0-15.066-12.213-27.281-27.28-27.281
						c-7.912,0-15.035,3.373-20.018,8.754c4.865-4.505,11.373-7.26,18.527-7.26c15.065,0,27.279,12.212,27.279,27.28
						c0,7.152-2.757,13.661-7.262,18.526C53.277,44.661,56.648,37.537,56.648,29.625z"/>
				</g>
			</mask>
			<radialGradient id="SVGID_91_" cx="54.2554" cy="5.4829" r="43.7256" gradientUnits="userSpaceOnUse">
				<stop  offset="0" style="stop-color:#E8C2DD"/>
				<stop  offset="1" style="stop-color:#E8C2DD"/>
			</radialGradient>
			<path fill="url(#SVGID_91_)" d="M56.648,29.625c0-15.066-12.213-27.281-27.28-27.281c-7.912,0-15.035,3.373-20.018,8.754
				c4.865-4.505,11.373-7.26,18.527-7.26c15.065,0,27.279,12.212,27.279,27.28c0,7.152-2.757,13.661-7.262,18.526
				C53.277,44.661,56.648,37.537,56.648,29.625z"/>
		</g>
		<g>
			<radialGradient id="SVGID_92_" cx="32.7241" cy="24.3115" r="28.1533" gradientUnits="userSpaceOnUse">
				<stop  offset="0" style="stop-color:#FFFFFF"/>
				<stop  offset="0.3287" style="stop-color:#FDFDFD"/>
				<stop  offset="0.5264" style="stop-color:#F6F6F6"/>
				<stop  offset="0.6894" style="stop-color:#E9E9E9"/>
				<stop  offset="0.8327" style="stop-color:#D8D8D8"/>
				<stop  offset="0.885" style="stop-color:#D0D0D0"/>
			</radialGradient>
			<path fill="url(#SVGID_92_)" d="M28.995,51.548c-11.882,0-21.549-9.667-21.549-21.55c0-11.882,9.667-21.55,21.549-21.55
				c11.883,0,21.55,9.668,21.55,21.55C50.545,41.881,40.878,51.548,28.995,51.548z"/>
			<defs>
				<filter id="Adobe_OpacityMaskFilter_46_" filterUnits="userSpaceOnUse" x="13.402" y="8.447" width="37.144" height="37.146">
					<feFlood  style="flood-color:white;flood-opacity:1" result="back"/>
					<feBlend  in="SourceGraphic" in2="back" mode="normal"/>
				</filter>
			</defs>
			<mask maskUnits="userSpaceOnUse" x="13.402" y="8.447" width="37.144" height="37.146" id="SVGID_93_">
				<g filter="url(#Adobe_OpacityMaskFilter_46_)">
					<defs>
						<filter id="Adobe_OpacityMaskFilter_47_" filterUnits="userSpaceOnUse" x="13.402" y="8.447" width="37.144" height="37.146">
							<feFlood  style="flood-color:white;flood-opacity:1" result="back"/>
							<feBlend  in="SourceGraphic" in2="back" mode="normal"/>
						</filter>
					</defs>
					<mask maskUnits="userSpaceOnUse" x="13.402" y="8.447" width="37.144" height="37.146" id="SVGID_93_">
						<g filter="url(#Adobe_OpacityMaskFilter_47_)">
						</g>
					</mask>
					<linearGradient id="SVGID_94_" gradientUnits="userSpaceOnUse" x1="28.6235" y1="30.3716" x2="44.2274" y2="14.7677">
						<stop  offset="0" style="stop-color:#000000"/>
						<stop  offset="1" style="stop-color:#FFFFFF"/>
					</linearGradient>
					<path mask="url(#SVGID_93_)" fill="url(#SVGID_94_)" d="M28.995,8.447c-6.13,0-11.667,2.578-15.593,6.703
						c3.867-3.686,9.096-5.956,14.848-5.956c11.884,0,21.549,9.666,21.549,21.549c0,5.752-2.269,10.982-5.954,14.85
						c4.123-3.928,6.7-9.464,6.7-15.595C50.545,18.116,40.878,8.447,28.995,8.447z"/>
				</g>
			</mask>
			<linearGradient id="SVGID_95_" gradientUnits="userSpaceOnUse" x1="28.6235" y1="30.3716" x2="44.2274" y2="14.7677">
				<stop  offset="0" style="stop-color:#FFFFFF"/>
				<stop  offset="1" style="stop-color:#D0D0D0"/>
			</linearGradient>
			<path fill="url(#SVGID_95_)" d="M28.995,8.447c-6.13,0-11.667,2.578-15.593,6.703c3.867-3.686,9.096-5.956,14.848-5.956
				c11.884,0,21.549,9.666,21.549,21.549c0,5.752-2.269,10.982-5.954,14.85c4.123-3.928,6.7-9.464,6.7-15.595
				C50.545,18.116,40.878,8.447,28.995,8.447z"/>
		</g>
	</g>
</g>
</svg>
